<?xml version="1.0" ?>
<!DOCTYPE svg  PUBLIC '-//W3C//DTD SVG 1.1//EN'  'http://www.w3.org/Graphics/SVG/1.1/DTD/svg11.dtd'>
<!-- Uploaded to: SVG Repo, www.svgrepo.com, Generator: SVG Repo Mixer Tools -->
<svg fill="#000000" width="800px" height="800px" viewBox="0 0 512 512" enable-background="new 0 0 512 512" id="Dart" version="1.1" xml:space="preserve" xmlns="http://www.w3.org/2000/svg" xmlns:xlink="http://www.w3.org/1999/xlink">
<g>
<path d="M242.633,394.779c-79.31,0-143.826-64.529-143.826-143.825c0-79.324,64.516-143.839,143.826-143.839   c79.311,0,143.84,64.516,143.84,143.839c0,29.977-9.234,57.833-24.99,80.9l28.646,27.597c22.28-30.41,35.448-67.916,35.448-108.504   c0-101.514-82.294-183.808-183.808-183.808c-101.514,0-183.808,82.293-183.808,183.808c0,101.514,82.293,183.807,183.808,183.807   c47.778,0,91.294-18.231,123.981-48.113l-30.852-25.456C309.905,382.137,277.721,394.779,242.633,394.779z"/>
<path d="M332.242,303.686c9.103-15.467,14.33-33.488,14.33-52.731c0-57.522-46.625-104.147-104.133-104.147   c-57.522,0-104.148,46.625-104.148,104.147c0,57.508,46.626,104.134,104.148,104.134c22.818,0,43.923-7.344,61.082-19.793   l-37.05-30.57c-7.138,3.099-15.006,4.828-23.283,4.828c-32.366,0-58.604-26.236-58.604-58.606   c0-32.365,26.239-58.604,58.604-58.604c32.362,0,58.604,26.239,58.604,58.604c0,7.029-1.265,13.755-3.537,19.997L332.242,303.686z"/>
<path d="M453.709,405.172l-32.604-31.611c0.373-0.549-2.334-1.516-4.999-1.607l-26.233,3.906l-1.658-1.587L283.391,273.285   l0.241-0.271c0.672-0.753,0.605-1.907-0.147-2.579l-0.027-0.024c-0.753-0.672-1.908-0.606-2.579,0.147l-0.268,0.3   c-3.884-2.614-8.93-2.601-12.778-0.096l-24.926-19.23c-0.212-0.164-0.641,0-0.971,0.369l-0.012,0.014   c-0.33,0.37-0.443,0.814-0.256,1.007l21.991,22.62c-1.913,4.063-1.309,8.956,1.672,12.448l-0.268,0.301   c-0.672,0.753-0.605,1.908,0.147,2.579l0.027,0.024c0.753,0.672,1.907,0.605,2.579-0.147l0.242-0.271l112.276,92.641l4.202,3.468   l-2.535-2.091l-0.878,26.063c-0.071,2.126,0.852,4.164,2.497,5.513l34.828,28.551c0.689,0.564,1.723,0.069,1.715-0.821   l-0.261-28.027l13.403,11.062c0.666,0.552,1.501,0.788,2.313,0.725c0.501-0.038,0.986-0.204,1.427-0.47   c0.096-0.057,0.194-0.105,0.284-0.174c0.03-0.023,0.056-0.055,0.085-0.078c0.133-0.107,0.264-0.219,0.381-0.35l0.006-0.006   c0-0.001,0.001-0.001,0.002-0.002l0.041-0.047c0.001-0.001,0.001-0.001,0.001-0.001l0.007-0.007   c0.244-0.274,0.422-0.586,0.557-0.91c0.023-0.057,0.058-0.111,0.078-0.17c0.002-0.006,0.002-0.014,0.005-0.02   c0.132-0.383,0.191-0.785,0.176-1.184c-0.028-0.814-0.358-1.618-0.983-2.219l-8.428-8.109l-4.006-3.859l27.816-2.928   C453.981,406.929,454.367,405.811,453.709,405.172z"/>
</g>
</svg>