<?xml version="1.0" standalone="no"?>
<!DOCTYPE svg PUBLIC "-//W3C//DTD SVG 20010904//EN"
 "http://www.w3.org/TR/2001/REC-SVG-20010904/DTD/svg10.dtd">
<svg version="1.0" xmlns="http://www.w3.org/2000/svg"
 width="1024.000000pt" height="1024.000000pt" viewBox="0 0 1024.000000 1024.000000"
 preserveAspectRatio="xMidYMid meet">

<g transform="translate(0.000000,1024.000000) scale(0.100000,-0.100000)"
fill="#000000" stroke="none">
<path d="M6605 9433 c-48 -25 -76 -55 -101 -108 l-24 -50 1 -515 c0 -393 3
-523 13 -551 20 -56 63 -105 111 -128 44 -20 59 -21 558 -21 358 0 524 3 548
11 54 19 97 56 124 109 l25 49 0 526 c0 573 1 566 -58 629 -15 16 -45 37 -67
47 -37 17 -75 19 -570 18 -464 0 -534 -2 -560 -16z m1105 -4 c41 -12 85 -49
115 -94 19 -29 20 -49 20 -575 l0 -545 -23 -37 c-31 -49 -74 -85 -120 -98 -52
-14 -1014 -14 -1067 1 -47 13 -120 81 -111 104 3 9 2 14 -3 11 -5 -3 -12 4
-16 17 -5 12 -10 249 -12 527 -5 563 -3 577 60 637 68 65 42 62 606 63 347 0
526 -4 551 -11z"/>
<path d="M6731 9416 c-9 -10 -9 -16 -1 -21 6 -4 14 -4 17 -1 4 3 1 6 -7 6 -10
0 -10 3 0 15 7 8 10 15 7 15 -2 0 -10 -6 -16 -14z"/>
<path d="M6760 9424 c0 -6 6 -17 14 -23 11 -9 15 -8 20 4 4 10 2 14 -5 9 -6
-4 -15 0 -20 7 -5 8 -9 9 -9 3z"/>
<path d="M7165 9421 c-3 -5 -2 -12 3 -15 5 -3 9 1 9 9 0 17 -3 19 -12 6z"/>
<path d="M7476 9415 c-11 -8 -15 -15 -9 -15 6 0 16 7 23 15 16 19 11 19 -14 0z"/>
<path d="M6627 9409 c7 -7 15 -10 18 -7 3 3 -2 9 -12 12 -14 6 -15 5 -6 -5z"/>
<path d="M7650 9411 c0 -6 5 -13 12 -17 6 -4 8 -3 4 4 -3 5 0 13 6 15 8 3 6 6
-4 6 -10 1 -18 -3 -18 -8z"/>
<path d="M7240 9390 c-9 -6 -10 -10 -3 -10 6 0 15 5 18 10 8 12 4 12 -15 0z"/>
<path d="M7346 9388 c3 -4 11 -5 19 -1 21 7 19 12 -4 10 -11 0 -18 -5 -15 -9z"/>
<path d="M7433 9383 c1 -17 4 -19 14 -11 15 12 18 22 4 14 -5 -4 -11 0 -14 6
-3 7 -4 3 -4 -9z"/>
<path d="M7323 9375 c0 -8 4 -12 9 -9 5 3 6 10 3 15 -9 13 -12 11 -12 -6z"/>
<path d="M7584 9379 c1 -7 10 -13 19 -15 9 -1 15 2 11 7 -3 5 -9 7 -14 4 -4
-3 -11 0 -13 5 -3 6 -4 5 -3 -1z"/>
<path d="M6796 9368 c3 -5 10 -6 15 -3 13 9 11 12 -6 12 -8 0 -12 -4 -9 -9z"/>
<path d="M7055 9370 c-3 -6 1 -7 9 -4 18 7 21 14 7 14 -6 0 -13 -4 -16 -10z"/>
<path d="M7475 9370 c-3 -5 -3 -10 2 -11 4 0 -1 -4 -12 -9 -16 -7 -14 -9 15
-9 29 0 32 1 17 10 -9 6 -15 14 -12 20 4 5 4 9 1 9 -3 0 -8 -4 -11 -10z"/>
<path d="M6660 9360 c-13 -8 -12 -10 3 -10 9 0 17 5 17 10 0 12 -1 12 -20 0z"/>
<path d="M6695 9360 c-3 -5 -1 -10 4 -10 6 0 11 5 11 10 0 6 -2 10 -4 10 -3 0
-8 -4 -11 -10z"/>
<path d="M7005 9360 c-3 -5 -1 -10 4 -10 6 0 11 5 11 10 0 6 -2 10 -4 10 -3 0
-8 -4 -11 -10z"/>
<path d="M7355 9361 c-6 -5 -21 -11 -35 -14 -18 -3 -15 -5 13 -6 27 -1 37 3
37 14 0 17 -3 18 -15 6z"/>
<path d="M7230 9356 c0 -2 8 -10 18 -17 15 -13 16 -12 3 4 -13 16 -21 21 -21
13z"/>
<path d="M7725 9350 c-3 -5 -1 -10 5 -10 6 0 8 -5 4 -12 -4 -7 -3 -8 4 -4 6 4
9 13 5 21 -6 18 -10 19 -18 5z"/>
<path d="M6535 9341 c-3 -5 -2 -12 3 -15 5 -3 9 1 9 9 0 17 -3 19 -12 6z"/>
<path d="M7158 9343 c12 -2 30 -2 40 0 9 3 -1 5 -23 4 -22 0 -30 -2 -17 -4z"/>
<path d="M6650 9336 c0 -2 7 -7 16 -10 8 -3 12 -2 9 4 -6 10 -25 14 -25 6z"/>
<path d="M7178 9333 l-48 -4 0 -65 0 -64 -35 0 -35 0 0 65 0 65 -45 0 -45 0 0
-65 0 -65 -35 0 -35 0 0 65 0 65 -45 0 -45 0 0 -63 c0 -62 -1 -64 -35 -80 -24
-12 -37 -26 -43 -49 -8 -32 -10 -33 -63 -33 l-54 0 -3 -42 -3 -43 59 0 59 0 1
-35 c1 -35 1 -35 -42 -35 -66 0 -76 -7 -76 -50 0 -37 1 -38 45 -44 25 -4 49
-4 55 -1 6 4 10 -10 10 -34 l0 -41 -55 0 -55 0 0 -40 0 -40 54 0 54 0 4 -35
c4 -34 3 -35 -32 -35 -70 0 -80 -8 -80 -57 l0 -45 60 4 60 4 0 -38 0 -38 -60
0 -60 0 0 -45 0 -45 56 0 c49 0 58 -3 80 -29 14 -17 34 -33 45 -36 19 -6 21
-13 17 -81 -2 -41 0 -74 5 -74 4 0 5 5 2 10 -4 6 12 10 39 10 l46 0 0 64 0 64
35 4 35 4 0 -68 0 -68 45 0 45 0 0 65 0 65 35 0 35 0 0 -65 c0 -51 3 -65 15
-66 8 -1 20 -3 25 -4 6 -1 20 -3 33 -4 21 -2 21 -3 2 -12 -19 -8 -19 -9 -1 -6
17 2 19 10 17 80 l-2 77 35 0 36 0 0 -65 0 -65 45 0 45 0 0 68 0 67 30 0 30 0
0 -66 0 -67 44 -4 c43 -3 45 -2 49 27 2 16 4 47 3 68 -1 28 3 37 15 37 22 0
69 38 69 56 0 11 15 14 60 14 l60 0 0 45 0 45 -55 0 -55 0 0 35 0 35 56 0 55
0 -3 48 -3 47 -52 3 c-53 3 -53 3 -53 37 l0 34 54 -3 54 -3 6 39 c4 22 4 43 1
49 -4 5 -31 9 -61 9 l-54 0 0 35 0 35 55 0 55 0 0 45 0 45 -55 0 -55 0 0 35 0
35 58 0 57 0 0 48 0 47 -57 -3 c-47 -3 -58 -1 -58 11 0 9 -3 23 -7 33 -5 12
-3 15 6 9 10 -6 11 -3 2 12 -6 11 -7 24 -3 28 4 5 2 5 -5 1 -7 -4 -9 -14 -6
-23 6 -15 5 -15 -17 0 -14 9 -32 17 -42 17 -14 0 -18 8 -18 34 0 18 -3 48 -6
65 -6 29 -9 31 -50 31 l-44 0 0 -70 0 -70 -30 0 -30 0 0 70 0 70 -45 0 -45 0
0 -68 0 -68 -36 4 -36 4 4 69 c2 38 3 68 3 67 0 -1 -21 -3 -47 -5z m264 -321
c23 -22 23 -25 20 -255 -4 -265 -6 -272 -74 -282 -24 -4 -136 -5 -250 -3 -183
3 -209 5 -225 21 -16 16 -18 41 -18 263 l0 246 24 19 c23 19 38 20 262 17 233
-3 239 -4 261 -26z"/>
<path d="M7075 9010 c4 -22 -10 -28 -18 -7 -4 9 -6 9 -6 0 -1 -18 17 -25 36
-14 11 6 13 11 5 11 -7 0 -11 4 -7 9 3 5 1 12 -4 16 -6 3 -8 -3 -6 -15z"/>
<path d="M7120 9019 c0 -5 5 -7 10 -4 6 4 18 1 27 -7 11 -8 14 -9 10 -1 -5 9
8 13 45 16 46 3 44 4 -19 5 -46 1 -73 -2 -73 -9z"/>
<path d="M7271 9026 c8 -8 88 -10 95 -3 4 4 -17 7 -46 7 -29 0 -51 -2 -49 -4z"/>
<path d="M6920 9005 c-6 -8 -10 -19 -8 -24 1 -6 8 1 15 14 13 28 11 31 -7 10z"/>
<path d="M7006 9004 c-6 -15 -4 -15 11 -3 10 7 20 15 22 16 2 2 -3 3 -11 3 -9
0 -19 -7 -22 -16z"/>
<path d="M7225 8980 c-4 -6 -11 -7 -17 -4 -6 4 -8 2 -4 -4 3 -5 0 -13 -6 -15
-8 -3 -8 -6 -2 -6 6 -1 19 8 29 19 10 11 15 20 12 20 -3 0 -9 -5 -12 -10z"/>
<path d="M7435 8980 c-3 -5 -1 -10 4 -10 6 0 11 5 11 10 0 6 -2 10 -4 10 -3 0
-8 -4 -11 -10z"/>
<path d="M7105 8959 c-4 -6 -5 -12 -2 -15 2 -3 7 2 10 11 7 17 1 20 -8 4z"/>
<path d="M6910 8946 c0 -2 7 -7 16 -10 8 -3 12 -2 9 4 -6 10 -25 14 -25 6z"/>
<path d="M6960 8946 c0 -7 40 -14 44 -7 3 4 -6 8 -20 9 -13 1 -24 0 -24 -2z"/>
<path d="M7438 8905 c2 -14 6 -25 8 -25 2 0 4 11 4 25 0 14 -4 25 -9 25 -4 0
-6 -11 -3 -25z"/>
<path d="M7011 8899 c0 -15 7 -33 17 -40 15 -12 16 -12 5 1 -6 8 -13 26 -16
40 l-4 25 -2 -26z"/>
<path d="M7175 8890 c4 -6 11 -8 16 -5 14 9 11 15 -7 15 -8 0 -12 -5 -9 -10z"/>
<path d="M7335 8890 c3 -5 8 -10 11 -10 2 0 4 5 4 10 0 6 -5 10 -11 10 -5 0
-7 -4 -4 -10z"/>
<path d="M7199 8873 c-13 -16 -12 -17 4 -4 9 7 17 15 17 17 0 8 -8 3 -21 -13z"/>
<path d="M7079 8863 c-13 -16 -12 -17 4 -4 9 7 17 15 17 17 0 8 -8 3 -21 -13z"/>
<path d="M7051 8854 c0 -11 3 -14 6 -6 3 7 2 16 -1 19 -3 4 -6 -2 -5 -13z"/>
<path d="M7124 8839 c-3 -6 -2 -15 3 -20 5 -5 9 -1 9 11 0 23 -2 24 -12 9z"/>
<path d="M7441 8824 c0 -11 3 -14 6 -6 3 7 2 16 -1 19 -3 4 -6 -2 -5 -13z"/>
<path d="M7276 8813 c-6 -14 -5 -15 5 -6 7 7 10 15 7 18 -3 3 -9 -2 -12 -12z"/>
<path d="M7338 8817 c8 -9 11 -20 8 -25 -3 -5 1 -9 9 -9 16 0 4 31 -18 43 -8
6 -8 3 1 -9z"/>
<path d="M6901 8804 c0 -11 3 -14 6 -6 3 7 2 16 -1 19 -3 4 -6 -2 -5 -13z"/>
<path d="M7207 8813 c-10 -9 -9 -23 1 -23 5 0 9 7 9 15 0 17 -1 18 -10 8z"/>
<path d="M7170 8801 c0 -6 4 -13 10 -16 6 -3 7 1 4 9 -7 18 -14 21 -14 7z"/>
<path d="M7436 8787 c3 -10 9 -15 12 -12 3 3 0 11 -7 18 -10 9 -11 8 -5 -6z"/>
<path d="M6954 8771 c0 -13 6 -17 19 -13 10 2 16 5 15 6 -2 1 -10 7 -18 13
-13 10 -16 8 -16 -6z"/>
<path d="M7395 8781 c4 -8 2 -17 -6 -22 -9 -6 -10 -9 -2 -9 19 0 27 21 13 33
-10 9 -11 9 -5 -2z"/>
<path d="M7432 8739 c-7 -12 -11 -24 -8 -27 3 -3 6 0 6 7 0 7 4 10 8 7 4 -2 9
4 9 15 2 24 1 24 -15 -2z"/>
<path d="M7032 8734 c10 -10 20 -16 22 -13 3 3 -5 11 -17 18 -21 13 -21 12 -5
-5z"/>
<path d="M7140 8740 c0 -6 -4 -9 -9 -5 -5 3 -12 1 -16 -5 -4 -6 -11 -7 -17 -4
-7 4 -8 2 -4 -5 4 -6 13 -8 19 -4 7 4 18 8 25 9 20 3 25 11 13 19 -6 3 -11 1
-11 -5z"/>
<path d="M6995 8731 c-3 -5 -1 -12 5 -16 5 -3 10 1 10 9 0 18 -6 21 -15 7z"/>
<path d="M7268 8733 c6 -2 18 -2 25 0 6 3 1 5 -13 5 -14 0 -19 -2 -12 -5z"/>
<path d="M6901 8714 c0 -11 3 -14 6 -6 3 7 2 16 -1 19 -3 4 -6 -2 -5 -13z"/>
<path d="M7327 8723 c-3 -5 10 -8 29 -8 19 0 34 3 34 8 0 4 -13 7 -29 7 -17 0
-32 -3 -34 -7z"/>
<path d="M6954 8698 c-13 -16 -14 -19 -2 -10 13 10 17 10 21 0 3 -7 4 -3 4 10
-1 12 -2 22 -3 22 0 0 -9 -10 -20 -22z"/>
<path d="M7051 8694 c0 -11 3 -14 6 -6 3 7 2 16 -1 19 -3 4 -6 -2 -5 -13z"/>
<path d="M7136 8698 c3 -4 9 -8 15 -8 5 0 9 4 9 8 0 5 -7 9 -15 9 -8 0 -12 -4
-9 -9z"/>
<path d="M7117 8671 c-4 -17 -3 -21 5 -13 5 5 8 16 6 23 -3 8 -7 3 -11 -10z"/>
<path d="M7030 8676 c0 -2 8 -10 18 -17 15 -13 16 -12 3 4 -13 16 -21 21 -21
13z"/>
<path d="M7240 8646 c0 -8 4 -17 9 -20 5 -4 7 3 4 14 -6 23 -13 26 -13 6z"/>
<path d="M7370 8649 c0 -5 5 -7 10 -4 6 3 10 8 10 11 0 2 -4 4 -10 4 -5 0 -10
-5 -10 -11z"/>
<path d="M7150 8646 c0 -2 7 -6 15 -10 8 -3 15 -1 15 4 0 6 -7 10 -15 10 -8 0
-15 -2 -15 -4z"/>
<path d="M7110 8636 c0 -2 7 -7 16 -10 8 -3 12 -2 9 4 -6 10 -25 14 -25 6z"/>
<path d="M7441 8624 c0 -11 3 -14 6 -6 3 7 2 16 -1 19 -3 4 -6 -2 -5 -13z"/>
<path d="M7078 8603 c7 -3 16 -2 19 1 4 3 -2 6 -13 5 -11 0 -14 -3 -6 -6z"/>
<path d="M7196 8595 c4 -8 11 -15 16 -15 6 0 5 6 -2 15 -7 8 -14 15 -16 15 -2
0 -1 -7 2 -15z"/>
<path d="M7047 8589 c7 -7 15 -10 18 -7 3 3 -2 9 -12 12 -14 6 -15 5 -6 -5z"/>
<path d="M7140 8596 c0 -2 7 -7 16 -10 8 -3 12 -2 9 4 -6 10 -25 14 -25 6z"/>
<path d="M7270 8596 c0 -2 7 -7 16 -10 8 -3 12 -2 9 4 -6 10 -25 14 -25 6z"/>
<path d="M7420 8560 c-8 -15 -8 -18 3 -14 8 3 14 11 14 19 0 20 -4 19 -17 -5z"/>
<path d="M7175 8540 c3 -5 8 -10 11 -10 2 0 4 5 4 10 0 6 -5 10 -11 10 -5 0
-7 -4 -4 -10z"/>
<path d="M6990 8525 c-14 -8 -20 -14 -14 -15 5 0 19 7 30 15 24 18 16 19 -16
0z"/>
<path d="M7033 8520 c1 -20 12 -26 20 -12 3 4 -1 13 -8 19 -11 10 -13 9 -12
-7z"/>
<path d="M6910 8523 c0 -6 8 -17 18 -24 16 -13 16 -13 2 6 -8 11 -16 22 -17
24 -2 2 -3 0 -3 -6z"/>
<path d="M7078 8503 c7 -3 16 -2 19 1 4 3 -2 6 -13 5 -11 0 -14 -3 -6 -6z"/>
<path d="M7153 8483 c9 -2 25 -2 35 0 9 3 1 5 -18 5 -19 0 -27 -2 -17 -5z"/>
<path d="M7567 9322 c-11 -12 -17 -34 -16 -63 l2 -44 6 46 c4 26 13 54 20 63
19 22 8 20 -12 -2z"/>
<path d="M7231 9304 c0 -11 3 -14 6 -6 3 7 2 16 -1 19 -3 4 -6 -2 -5 -13z"/>
<path d="M7422 9295 c0 -16 2 -22 5 -12 2 9 2 23 0 30 -3 6 -5 -1 -5 -18z"/>
<path d="M6921 9294 c0 -11 3 -14 6 -6 3 7 2 16 -1 19 -3 4 -6 -2 -5 -13z"/>
<path d="M6792 9275 c0 -16 2 -22 5 -12 2 9 2 23 0 30 -3 6 -5 -1 -5 -18z"/>
<path d="M7390 9270 c0 -16 2 -30 4 -30 2 0 6 14 8 30 3 17 1 30 -4 30 -4 0
-8 -13 -8 -30z"/>
<path d="M6555 9281 c-3 -5 -2 -12 3 -15 5 -3 9 1 9 9 0 17 -3 19 -12 6z"/>
<path d="M7102 9270 c0 -14 2 -19 5 -12 2 6 2 18 0 25 -3 6 -5 1 -5 -13z"/>
<path d="M6674 9264 c-18 -14 -18 -14 6 -3 31 14 36 19 24 19 -6 0 -19 -7 -30
-16z"/>
<path d="M7620 9270 c-9 -6 -10 -10 -3 -10 6 0 15 5 18 10 8 12 4 12 -15 0z"/>
<path d="M7743 9265 c0 -8 4 -12 9 -9 5 3 6 10 3 15 -9 13 -12 11 -12 -6z"/>
<path d="M7272 9250 c0 -14 2 -19 5 -12 2 6 2 18 0 25 -3 6 -5 1 -5 -13z"/>
<path d="M7823 9255 c0 -8 4 -15 9 -15 4 0 8 4 8 9 0 6 -4 12 -8 15 -5 3 -9
-1 -9 -9z"/>
<path d="M7407 9238 c-10 -11 -17 -22 -14 -24 2 -2 12 5 22 16 23 26 16 33 -8
8z"/>
<path d="M7670 9249 c0 -5 5 -7 10 -4 6 3 10 8 10 11 0 2 -4 4 -10 4 -5 0 -10
-5 -10 -11z"/>
<path d="M6576 9239 c2 -4 -2 -10 -8 -12 -8 -4 -9 -6 -2 -6 6 -1 17 5 23 12 8
10 7 14 -4 14 -8 0 -12 -4 -9 -8z"/>
<path d="M6650 9220 c6 -11 13 -20 16 -20 2 0 0 9 -6 20 -6 11 -13 20 -16 20
-2 0 0 -9 6 -20z"/>
<path d="M6791 9232 c-1 -7 -11 -17 -23 -22 -13 -5 -16 -9 -8 -9 23 -1 43 15
37 30 -4 11 -6 11 -6 1z"/>
<path d="M6929 9231 c11 -7 11 -9 0 -14 -8 -3 -3 -6 10 -6 20 -1 21 1 11 14
-7 8 -18 15 -24 15 -6 0 -5 -4 3 -9z"/>
<path d="M7100 9231 c0 -5 -8 -12 -17 -14 -14 -4 -12 -5 5 -6 13 -1 22 5 22
14 0 8 -2 15 -5 15 -3 0 -5 -4 -5 -9z"/>
<path d="M7243 9213 c9 -2 23 -2 30 0 6 3 -1 5 -18 5 -16 0 -22 -2 -12 -5z"/>
<path d="M7766 9211 c-3 -5 1 -11 9 -14 9 -4 12 -1 8 9 -6 16 -10 17 -17 5z"/>
<path d="M6600 9190 c6 -11 12 -20 14 -20 2 0 2 9 -1 20 -3 11 -9 20 -15 20
-5 0 -4 -9 2 -20z"/>
<path d="M7736 9195 c4 -8 8 -15 10 -15 2 0 4 7 4 15 0 8 -4 15 -10 15 -5 0
-7 -7 -4 -15z"/>
<path d="M6716 9175 c-3 -8 -1 -15 4 -15 6 0 10 7 10 15 0 8 -2 15 -4 15 -2 0
-6 -7 -10 -15z"/>
<path d="M7720 9176 c0 -2 8 -10 18 -17 15 -13 16 -12 3 4 -13 16 -21 21 -21
13z"/>
<path d="M6573 9153 c-10 -10 -14 -15 -9 -10 19 14 28 7 15 -10 -11 -15 -11
-16 1 -6 12 11 23 43 15 43 -1 0 -11 -8 -22 -17z"/>
<path d="M7820 9140 c-9 -6 -10 -10 -3 -10 6 0 15 5 18 10 8 12 4 12 -15 0z"/>
<path d="M7770 9129 c0 -5 5 -7 10 -4 6 3 10 8 10 11 0 2 -4 4 -10 4 -5 0 -10
-5 -10 -11z"/>
<path d="M6668 9123 c7 -3 16 -2 19 1 4 3 -2 6 -13 5 -11 0 -14 -3 -6 -6z"/>
<path d="M7693 9123 c9 -2 23 -2 30 0 6 3 -1 5 -18 5 -16 0 -22 -2 -12 -5z"/>
<path d="M7764 9049 c-4 -7 -3 -9 4 -5 5 3 13 0 15 -6 4 -9 6 -10 6 -1 1 17
-16 25 -25 12z"/>
<path d="M7806 9022 c-3 -5 1 -9 9 -9 8 0 12 4 9 9 -3 4 -7 8 -9 8 -2 0 -6 -4
-9 -8z"/>
<path d="M7755 9010 c-3 -5 -1 -10 4 -10 6 0 11 5 11 10 0 6 -2 10 -4 10 -3 0
-8 -4 -11 -10z"/>
<path d="M6535 8989 c-4 -6 -5 -12 -2 -15 2 -3 7 2 10 11 7 17 1 20 -8 4z"/>
<path d="M6658 8993 c7 -3 16 -2 19 1 4 3 -2 6 -13 5 -11 0 -14 -3 -6 -6z"/>
<path d="M6697 8980 c3 -11 7 -20 9 -20 2 0 4 9 4 20 0 11 -4 20 -9 20 -5 0
-7 -9 -4 -20z"/>
<path d="M7688 8993 c7 -3 16 -2 19 1 4 3 -2 6 -13 5 -11 0 -14 -3 -6 -6z"/>
<path d="M6596 8948 c-19 -31 -24 -60 -9 -65 7 -3 11 7 11 28 -1 20 6 37 17
45 11 8 14 14 7 14 -6 0 -18 -10 -26 -22z"/>
<path d="M6653 8963 c9 -2 23 -2 30 0 6 3 -1 5 -18 5 -16 0 -22 -2 -12 -5z"/>
<path d="M7750 8965 c0 -2 6 -8 13 -14 10 -8 14 -7 14 2 0 8 -6 14 -14 14 -7
0 -13 -1 -13 -2z"/>
<path d="M7795 8959 c-4 -6 -5 -12 -2 -15 2 -3 7 2 10 11 7 17 1 20 -8 4z"/>
<path d="M6538 8883 c6 -2 9 -10 6 -15 -4 -7 -2 -8 5 -4 13 9 5 26 -12 25 -9
0 -8 -2 1 -6z"/>
<path d="M6590 8861 c0 -6 4 -13 10 -16 6 -3 7 1 4 9 -7 18 -14 21 -14 7z"/>
<path d="M6673 8833 c9 -2 23 -2 30 0 6 3 -1 5 -18 5 -16 0 -22 -2 -12 -5z"/>
<path d="M7655 8832 c-15 -15 -2 -32 25 -32 17 0 30 4 30 9 0 4 -11 6 -25 3
-15 -2 -25 0 -25 7 0 7 4 10 9 6 5 -3 12 -2 15 3 5 9 -20 12 -29 4z"/>
<path d="M6587 8819 c7 -7 15 -10 18 -7 3 3 -2 9 -12 12 -14 6 -15 5 -6 -5z"/>
<path d="M7774 8802 c3 -5 1 -12 -5 -14 -7 -2 -10 -9 -8 -16 3 -8 9 -5 16 7 9
15 10 22 1 27 -6 4 -8 3 -4 -4z"/>
<path d="M7796 8768 c3 -4 11 -5 19 -1 21 7 19 12 -4 10 -11 0 -18 -5 -15 -9z"/>
<path d="M6522 8754 c10 -10 20 -15 24 -12 3 4 -5 12 -18 18 -22 12 -22 12 -6
-6z"/>
<path d="M7760 8739 c0 -5 5 -7 10 -4 6 3 10 8 10 11 0 2 -4 4 -10 4 -5 0 -10
-5 -10 -11z"/>
<path d="M6510 8709 c0 -5 5 -7 10 -4 6 3 10 8 10 11 0 2 -4 4 -10 4 -5 0 -10
-5 -10 -11z"/>
<path d="M6567 8709 c7 -7 15 -10 18 -7 3 3 -2 9 -12 12 -14 6 -15 5 -6 -5z"/>
<path d="M6536 8688 c3 -5 10 -6 15 -3 13 9 11 12 -6 12 -8 0 -12 -4 -9 -9z"/>
<path d="M7776 8682 c-3 -5 1 -9 9 -9 8 0 12 4 9 9 -3 4 -7 8 -9 8 -2 0 -6 -4
-9 -8z"/>
<path d="M6630 8665 c0 -8 2 -15 4 -15 2 0 6 7 10 15 3 8 1 15 -4 15 -6 0 -10
-7 -10 -15z"/>
<path d="M6673 8673 c9 -2 23 -2 30 0 6 3 -1 5 -18 5 -16 0 -22 -2 -12 -5z"/>
<path d="M7648 8673 c7 -3 16 -2 19 1 4 3 -2 6 -13 5 -11 0 -14 -3 -6 -6z"/>
<path d="M7718 8673 c7 -3 16 -2 19 1 4 3 -2 6 -13 5 -11 0 -14 -3 -6 -6z"/>
<path d="M7710 8650 l-25 -8 28 -1 c15 -1 27 4 27 9 0 6 -1 10 -2 9 -2 -1 -14
-5 -28 -9z"/>
<path d="M6663 8643 c9 -2 25 -2 35 0 9 3 1 5 -18 5 -19 0 -27 -2 -17 -5z"/>
<path d="M6592 8595 c0 -16 2 -22 5 -12 2 9 2 23 0 30 -3 6 -5 -1 -5 -18z"/>
<path d="M7805 8589 c-4 -6 -5 -12 -2 -15 2 -3 7 2 10 11 7 17 1 20 -8 4z"/>
<path d="M6625 8510 c4 -6 11 -8 16 -5 14 9 11 15 -7 15 -8 0 -12 -5 -9 -10z"/>
<path d="M7718 8513 c7 -3 16 -2 19 1 4 3 -2 6 -13 5 -11 0 -14 -3 -6 -6z"/>
<path d="M7777 8509 c7 -7 15 -10 18 -7 3 3 -2 9 -12 12 -14 6 -15 5 -6 -5z"/>
<path d="M7810 8496 c0 -2 8 -10 18 -17 15 -13 16 -12 3 4 -13 16 -21 21 -21
13z"/>
<path d="M7785 8480 c3 -5 11 -10 16 -10 6 0 7 5 4 10 -3 6 -11 10 -16 10 -6
0 -7 -4 -4 -10z"/>
<path d="M6535 8470 c-3 -6 1 -7 9 -4 18 7 21 14 7 14 -6 0 -13 -4 -16 -10z"/>
<path d="M7746 8468 c3 -4 9 -8 15 -8 5 0 9 4 9 8 0 5 -7 9 -15 9 -8 0 -12 -4
-9 -9z"/>
<path d="M6544 8448 c-3 -4 2 -8 10 -8 8 0 17 4 20 8 3 5 -2 9 -10 9 -8 0 -17
-4 -20 -9z"/>
<path d="M7818 8443 c7 -3 16 -2 19 1 4 3 -2 6 -13 5 -11 0 -14 -3 -6 -6z"/>
<path d="M6589 8438 c-4 -22 -4 -88 1 -88 4 0 7 20 7 45 0 25 -1 45 -3 45 -2
0 -4 -1 -5 -2z"/>
<path d="M6554 8395 c0 -13 4 -21 8 -19 4 3 8 11 8 19 0 8 -4 16 -8 19 -4 2
-8 -6 -8 -19z"/>
<path d="M7825 8401 c-3 -5 -2 -12 3 -15 5 -3 9 1 9 9 0 17 -3 19 -12 6z"/>
<path d="M7772 8350 c-7 -11 -8 -20 -3 -20 9 0 24 30 18 36 -1 2 -8 -6 -15
-16z"/>
<path d="M6625 8352 c11 -2 26 -9 34 -16 12 -9 13 -8 6 3 -6 10 -4 13 6 9 8
-3 23 -2 34 2 13 5 -2 8 -40 7 -33 0 -51 -2 -40 -5z"/>
<path d="M7653 8353 c15 -2 37 -2 50 0 12 2 0 4 -28 4 -27 0 -38 -2 -22 -4z"/>
<path d="M7722 8335 c-8 -18 -8 -26 0 -31 7 -5 8 -2 3 6 -6 10 -4 12 11 6 15
-5 16 -4 7 5 -6 6 -9 18 -6 25 9 24 -3 15 -15 -11z"/>
<path d="M7614 8319 c-4 -7 -3 -9 4 -5 5 3 13 0 15 -6 4 -9 6 -10 6 -1 1 17
-16 25 -25 12z"/>
<path d="M7665 8310 c-3 -6 1 -7 9 -4 18 7 21 14 7 14 -6 0 -13 -4 -16 -10z"/>
<path d="M7707 8279 c4 -13 8 -18 11 -10 2 7 -1 18 -6 23 -8 8 -9 4 -5 -13z"/>
<path d="M6597 8279 c7 -7 15 -10 18 -7 3 3 -2 9 -12 12 -14 6 -15 5 -6 -5z"/>
<path d="M6778 8283 c7 -3 16 -2 19 1 4 3 -2 6 -13 5 -11 0 -14 -3 -6 -6z"/>
<path d="M6932 8283 c9 -2 19 -14 21 -26 4 -18 5 -17 6 6 1 22 -3 27 -21 26
-16 -1 -18 -3 -6 -6z"/>
<path d="M7071 8263 c1 -23 2 -24 6 -6 2 12 12 24 21 26 12 3 10 5 -5 6 -19 1
-23 -4 -22 -26z"/>
<path d="M7240 8281 c0 -5 9 -7 20 -4 11 3 20 7 20 9 0 2 -9 4 -20 4 -11 0
-20 -4 -20 -9z"/>
<path d="M7390 8263 c0 -18 2 -33 4 -33 9 0 13 39 5 51 -6 10 -9 4 -9 -18z"/>
<path d="M7550 8241 c0 -29 4 -50 9 -47 8 5 4 86 -5 95 -2 2 -4 -19 -4 -48z"/>
<path d="M7265 8260 c-3 -5 -1 -10 4 -10 6 0 11 5 11 10 0 6 -2 10 -4 10 -3 0
-8 -4 -11 -10z"/>
<path d="M7645 8259 c-4 -6 -4 -13 -1 -16 3 -4 6 -1 6 6 0 7 5 9 12 5 7 -4 8
-3 4 4 -9 15 -13 15 -21 1z"/>
<path d="M7737 8252 c3 -7 9 -10 12 -5 3 4 10 11 15 15 4 4 -1 6 -12 5 -12 -1
-18 -6 -15 -15z"/>
<path d="M7097 8248 c-2 -7 -1 -22 4 -33 6 -16 8 -14 8 13 1 33 -4 41 -12 20z"/>
<path d="M6575 8240 c-3 -5 -2 -10 4 -10 5 0 13 5 16 10 3 6 2 10 -4 10 -5 0
-13 -4 -16 -10z"/>
<path d="M6792 8220 c0 -19 2 -27 5 -17 2 9 2 25 0 35 -3 9 -5 1 -5 -18z"/>
<path d="M6740 8220 c6 -11 13 -20 16 -20 2 0 0 9 -6 20 -6 11 -13 20 -16 20
-2 0 0 -9 6 -20z"/>
<path d="M6952 8210 c0 -14 2 -19 5 -12 2 6 2 18 0 25 -3 6 -5 1 -5 -13z"/>
<path d="M7267 8210 c-3 -11 -1 -20 4 -20 5 0 9 9 9 20 0 11 -2 20 -4 20 -2 0
-6 -9 -9 -20z"/>
<path d="M7602 8221 c4 -16 44 -25 52 -13 3 5 -5 8 -17 7 -12 -1 -26 3 -30 9
-6 7 -7 6 -5 -3z"/>
<path d="M6630 8211 c0 -10 19 -25 25 -20 1 2 -3 10 -11 17 -8 7 -14 8 -14 3z"/>
<path d="M6709 8203 c-13 -16 -12 -17 4 -4 9 7 17 15 17 17 0 8 -8 3 -21 -13z"/>
<path d="M7417 8191 c-4 -17 -3 -21 5 -13 5 5 8 16 6 23 -3 8 -7 3 -11 -10z"/>
<path d="M6583 8185 c-10 -11 -9 -13 6 -12 11 1 17 7 14 14 -6 16 -5 16 -20
-2z"/>
<path d="M7677 8180 c3 -11 9 -22 13 -25 5 -3 6 4 3 15 -3 11 -9 22 -13 25 -5
3 -6 -4 -3 -15z"/>
<path d="M7070 8176 c0 -8 -6 -17 -12 -19 -8 -3 -6 -6 5 -6 11 -1 17 6 17 19
0 11 -2 20 -5 20 -3 0 -5 -6 -5 -14z"/>
<path d="M6657 8160 c3 -11 12 -20 19 -20 11 0 10 5 -3 20 -10 11 -18 20 -19
20 -1 0 0 -9 3 -20z"/>
<path d="M6760 8176 c0 -2 8 -10 18 -17 15 -13 16 -12 3 4 -13 16 -21 21 -21
13z"/>
<path d="M7622 8160 c0 -14 2 -19 5 -12 2 6 2 18 0 25 -3 6 -5 1 -5 -13z"/>
<path d="M7746 8164 c-5 -14 -9 -14 -23 -3 -15 12 -16 12 -10 -4 4 -10 7 -23
7 -29 0 -6 8 -1 19 10 10 12 21 18 25 15 4 -4 4 0 0 10 -8 21 -10 21 -18 1z"/>
<path d="M6558 8153 c6 -2 10 -9 6 -14 -3 -5 0 -9 5 -9 6 0 11 7 11 15 0 8 -8
15 -17 14 -11 0 -13 -3 -5 -6z"/>
<path d="M6705 8152 c-2 -3 -2 -8 1 -13 5 -9 34 -1 34 10 0 8 -27 10 -35 3z"/>
<path d="M6843 8153 c9 -2 23 -2 30 0 6 3 -1 5 -18 5 -16 0 -22 -2 -12 -5z"/>
<path d="M7397 8149 c7 -7 15 -10 18 -7 3 3 -2 9 -12 12 -14 6 -15 5 -6 -5z"/>
<path d="M7586 8152 c-3 -5 1 -9 9 -9 8 0 12 4 9 9 -3 4 -7 8 -9 8 -2 0 -6 -4
-9 -8z"/>
<path d="M7776 8144 c-5 -14 -4 -15 9 -4 17 14 19 20 6 20 -5 0 -12 -7 -15
-16z"/>
<path d="M6915 8130 c-3 -5 -12 -7 -20 -3 -8 3 -15 3 -15 0 0 -13 30 -14 40
-1 7 8 10 14 7 14 -3 0 -8 -4 -12 -10z"/>
<path d="M7251 8124 c0 -11 3 -14 6 -6 3 7 2 16 -1 19 -3 4 -6 -2 -5 -13z"/>
<path d="M7445 8130 c3 -5 8 -10 11 -10 2 0 4 5 4 10 0 6 -5 10 -11 10 -5 0
-7 -4 -4 -10z"/>
<path d="M7690 8130 c0 -5 5 -10 10 -10 6 0 10 5 10 10 0 6 -4 10 -10 10 -5 0
-10 -4 -10 -10z"/>
<path d="M7183 8115 c0 -8 4 -12 9 -9 5 3 6 10 3 15 -9 13 -12 11 -12 -6z"/>
<path d="M7571 8114 c0 -11 3 -14 6 -6 3 7 2 16 -1 19 -3 4 -6 -2 -5 -13z"/>
<path d="M6760 8110 c0 -5 5 -10 11 -10 5 0 7 5 4 10 -3 6 -8 10 -11 10 -2 0
-4 -4 -4 -10z"/>
<path d="M7091 8113 c-1 -17 16 -25 25 -12 4 7 3 9 -4 5 -5 -3 -13 0 -15 6 -4
9 -6 10 -6 1z"/>
<path d="M7290 8116 c0 -2 8 -10 18 -17 15 -13 16 -12 3 4 -13 16 -21 21 -21
13z"/>
<path d="M6686 8097 c3 -10 9 -15 12 -12 3 3 0 11 -7 18 -10 9 -11 8 -5 -6z"/>
<path d="M6725 8100 c-16 -7 -17 -9 -3 -9 9 -1 20 4 23 9 7 11 7 11 -20 0z"/>
<path d="M6799 8093 c-13 -16 -12 -17 4 -4 9 7 17 15 17 17 0 8 -8 3 -21 -13z"/>
<path d="M6870 8099 c0 -5 5 -7 10 -4 6 3 10 8 10 11 0 2 -4 4 -10 4 -5 0 -10
-5 -10 -11z"/>
<path d="M6980 8107 c0 -2 6 -10 14 -16 11 -9 16 -9 22 1 4 7 4 10 -1 6 -4 -4
-14 -3 -22 3 -7 6 -13 9 -13 6z"/>
<path d="M7152 8094 c-7 -8 -8 -14 -3 -14 10 0 25 19 20 25 -2 1 -10 -3 -17
-11z"/>
<path d="M7235 8090 c3 -5 8 -10 11 -10 2 0 4 5 4 10 0 6 -5 10 -11 10 -5 0
-7 -4 -4 -10z"/>
<path d="M7376 8091 c-4 -5 3 -7 14 -4 23 6 26 13 6 13 -8 0 -17 -4 -20 -9z"/>
<path d="M7595 8090 c3 -5 8 -10 11 -10 2 0 4 5 4 10 0 6 -5 10 -11 10 -5 0
-7 -4 -4 -10z"/>
<path d="M4240 9277 c-121 -91 -873 -648 -1015 -751 -38 -28 -112 -83 -165
-123 -94 -71 -95 -71 -116 -52 -26 24 -107 25 -249 4 -212 -32 -282 -59 -352
-135 -24 -26 -56 -51 -70 -55 -48 -12 -127 -72 -225 -172 -151 -155 -158 -176
-167 -578 -4 -165 -11 -307 -15 -315 -3 -8 -21 -22 -38 -30 -41 -20 -90 -102
-258 -435 -195 -387 -366 -781 -438 -1006 -80 -250 -93 -440 -37 -554 65 -134
193 -219 461 -306 152 -50 159 -51 171 -33 7 11 36 53 63 95 130 200 362 365
597 425 137 35 313 43 453 19 58 -10 113 -20 122 -24 9 -3 -52 -6 -135 -7
-172 0 -262 -16 -422 -71 -339 -117 -583 -375 -670 -709 -28 -107 -34 -251
-14 -346 27 -130 123 -271 223 -329 95 -54 118 -33 48 43 -134 149 -194 334
-162 502 14 75 67 186 125 264 l39 52 82 0 82 0 30 53 c36 63 98 122 161 151
46 21 51 21 786 21 l740 0 62 -29 c73 -33 144 -103 176 -174 21 -45 22 -64 27
-417 l5 -370 75 -7 c146 -14 329 -81 442 -164 51 -38 178 -170 178 -186 0 -6
-16 4 -35 20 -82 73 -254 157 -420 206 -89 26 -222 48 -237 39 -11 -6 -10
-321 0 -327 5 -3 53 -15 108 -27 54 -11 129 -33 167 -47 173 -64 362 -233 445
-398 20 -40 18 -38 -57 35 -137 134 -300 232 -484 291 -52 17 -115 32 -139 33
l-43 2 -6 -105 c-3 -58 -11 -123 -17 -145 -28 -99 -119 -191 -217 -219 -37
-11 -138 -16 -380 -21 -181 -3 -331 -8 -333 -10 -9 -9 -70 -229 -66 -237 6
-10 3085 -11 3100 0 11 7 26 197 17 206 -2 2 -19 -1 -36 -6 -24 -7 -41 -6 -65
4 -18 7 -163 144 -337 318 -168 167 -305 305 -305 307 0 1 8 0 18 -3 14 -5 14
-4 2 4 -8 6 -18 8 -23 5 -13 -8 -95 80 -102 110 -4 15 -4 39 0 55 4 18 129
150 367 389 380 380 384 384 445 357 28 -12 235 -214 219 -214 -5 0 -3 -7 4
-15 10 -12 10 -15 -4 -15 -9 0 -16 -4 -16 -10 0 -5 -8 -10 -17 -11 -13 0 -11
-3 6 -10 13 -5 26 -7 29 -4 3 3 0 5 -7 5 -7 0 -9 5 -6 10 4 6 11 8 16 5 5 -4
9 -1 9 5 0 6 4 9 10 5 5 -3 7 -13 4 -23 -4 -12 -3 -13 3 -5 7 9 22 -1 58 -37
28 -29 43 -50 35 -50 -10 -1 -9 -4 5 -12 11 -7 21 -10 22 -7 1 2 18 -11 37
-30 27 -26 33 -37 23 -44 -8 -6 -7 -7 5 -4 19 6 42 -15 30 -28 -4 -5 -2 -5 4
-2 17 10 258 -239 250 -258 -3 -9 -2 -13 4 -10 14 8 13 -31 -1 -58 -18 -35
-81 -97 -92 -90 -6 3 -7 2 -4 -4 8 -13 -57 -76 -68 -66 -4 5 -5 3 -2 -3 6 -10
-118 -142 -128 -136 -3 1 -5 -1 -4 -4 1 -3 -12 -19 -27 -35 -20 -21 -30 -26
-36 -17 -8 13 -8 13 -12 -24 -1 -15 -24 -18 -51 -5 -17 7 -16 5 3 -10 l23 -19
-27 -24 c-20 -18 -26 -20 -21 -8 3 10 1 20 -5 24 -7 4 -8 3 -4 -4 4 -7 2 -12
-5 -12 -9 0 -9 -3 0 -14 9 -11 9 -16 -1 -22 -7 -5 -16 -9 -20 -9 -5 0 -8 -4
-8 -10 -1 -20 -103 -113 -117 -108 -10 4 -13 0 -11 -13 2 -11 -3 -19 -12 -19
-8 0 -15 -7 -15 -15 -1 -8 -7 -13 -15 -12 -8 2 -12 0 -7 -4 4 -4 0 -16 -10
-26 -9 -10 -12 -18 -6 -18 9 0 585 577 666 668 42 48 48 90 19 134 -9 14 -125
134 -258 265 l-240 238 28 85 c37 109 78 267 78 298 0 13 3 22 8 20 7 -3 291
-190 459 -302 63 -42 179 -145 380 -335 158 -151 302 -280 320 -287 79 -33
124 -8 325 180 277 259 815 795 847 843 33 50 40 99 20 150 -6 15 -91 109
-189 208 l-179 180 24 155 c13 85 47 302 74 481 28 179 51 346 51 370 0 51
-13 73 -83 146 l-50 51 19 30 c11 17 60 84 109 149 104 135 146 208 204 346
77 186 131 384 147 541 8 75 1 109 -27 137 -19 19 -19 22 -4 107 8 48 15 113
15 145 0 48 -4 62 -25 82 -13 14 -35 25 -48 25 -21 0 -25 6 -31 41 -13 83 -77
110 -162 68 -47 -22 -84 -64 -164 -184 -189 -284 -410 -536 -434 -496 -3 5
-11 53 -16 107 -24 214 -64 312 -154 372 -38 25 -59 32 -98 32 -49 0 -49 0
-70 -47 -20 -45 -20 -52 -8 -200 14 -169 11 -236 -21 -428 -16 -101 -20 -158
-16 -255 4 -113 8 -136 46 -249 53 -159 53 -197 4 -252 -40 -44 -60 -108 -274
-867 l-92 -322 -36 21 c-126 75 -412 311 -666 548 -183 172 -244 200 -490 225
-216 23 -346 58 -497 132 -63 31 -73 43 -30 37 72 -10 204 63 276 154 24 30
61 91 82 134 21 43 42 79 46 79 13 0 -4 -134 -24 -188 -11 -29 -31 -66 -45
-82 -13 -17 -22 -30 -18 -30 21 0 87 45 126 87 64 69 96 128 120 224 39 153
16 300 -87 564 -82 207 -85 225 -94 520 -11 352 -37 473 -151 695 -106 207
-264 340 -434 366 -29 4 -65 19 -88 35 -49 36 -172 83 -257 100 -36 7 -128 12
-205 12 -116 -1 -157 -5 -239 -27 -238 -62 -433 -202 -577 -413 -80 -117 -134
-238 -214 -474 -42 -123 -88 -242 -102 -264 -56 -85 -124 -153 -285 -282 -243
-194 -291 -265 -292 -433 0 -113 22 -180 87 -263 l42 -52 6 90 c4 50 14 112
24 140 21 60 72 140 110 175 31 28 31 26 -7 -45 -61 -117 -78 -271 -43 -393
21 -71 91 -178 152 -232 92 -80 244 -130 349 -114 24 3 44 4 44 0 0 -40 -323
-89 -725 -110 -294 -16 -262 -6 -575 -169 -118 -62 -244 -125 -280 -141 -36
-15 -73 -35 -82 -45 -10 -9 -29 -56 -43 -106 -34 -117 -102 -258 -154 -317
-41 -46 -152 -128 -174 -128 -6 0 10 21 35 48 25 26 64 75 86 110 58 91 85
176 261 837 143 537 145 551 116 575 -26 22 -16 47 32 87 26 21 90 81 143 133
156 157 211 272 261 553 31 177 57 290 84 366 22 63 19 112 -10 155 l-24 36
152 119 c305 240 808 638 1035 819 182 145 232 191 230 207 -2 11 -10 21 -18
23 -8 1 -71 -40 -140 -91z m1446 -984 c98 -135 160 -315 166 -483 l3 -85 -35
17 c-68 35 -173 18 -240 -40 -94 -80 -108 -170 -60 -372 34 -140 40 -214 20
-234 -17 -17 -228 -16 -234 1 -3 7 -13 13 -22 13 -14 0 -16 -7 -11 -37 10 -61
24 -68 151 -71 91 -3 120 0 145 13 65 33 88 115 55 193 -52 124 -68 295 -34
361 37 73 144 110 223 78 32 -14 37 -20 37 -50 0 -73 -67 -117 -179 -117 -79
0 -89 -10 -46 -50 33 -31 132 -40 187 -17 l37 15 6 -53 c14 -110 -24 -334 -91
-535 -63 -187 -222 -401 -336 -450 -46 -20 -64 -22 -148 -17 -187 10 -388 110
-569 281 -143 137 -233 295 -257 451 -6 45 -6 45 -48 45 -57 1 -121 32 -140
69 -19 37 -21 71 -3 71 25 0 195 120 237 167 78 88 142 187 202 311 58 120 60
122 92 122 55 0 218 46 287 80 192 97 354 256 440 433 l23 47 49 -47 c27 -27
69 -76 93 -110z m-2802 -22 c3 -5 -26 -32 -65 -61 -66 -48 -73 -51 -100 -40
-21 9 -36 9 -63 0 -44 -14 -199 -3 -193 14 6 20 110 54 227 74 128 23 186 26
194 13z m35 -155 c10 -12 6 -38 -18 -123 -17 -59 -42 -171 -56 -248 -49 -266
-54 -287 -85 -353 -63 -134 -190 -277 -310 -350 l-65 -39 -40 -133 -39 -132
-121 5 c-143 5 -197 22 -261 81 l-47 42 36 69 c67 134 69 149 72 475 3 317 5
332 60 426 33 56 107 84 226 84 113 0 349 -37 349 -56 0 -1 -5 -15 -12 -29 -9
-20 -17 -25 -32 -21 -12 3 -71 11 -133 17 l-111 12 -106 -49 c-58 -27 -105
-52 -106 -56 0 -7 82 -35 118 -40 21 -3 20 -5 -16 -43 -20 -22 -46 -46 -57
-53 -33 -21 82 -7 138 17 27 12 67 24 90 28 l41 6 -37 -43 c-36 -42 -37 -46
-36 -119 0 -78 15 -142 35 -148 6 -2 16 20 23 49 15 70 54 153 91 195 17 18
30 37 30 41 0 5 9 18 20 30 22 23 50 29 50 11 0 -18 42 -109 50 -109 5 0 14
24 20 53 30 125 85 267 104 267 14 0 59 46 75 77 15 30 14 59 -5 95 -15 29
-14 31 7 54 26 27 42 30 58 10z m-362 -47 c115 -22 203 -54 203 -73 0 -7 -10
-22 -21 -35 -24 -25 -24 -25 -134 8 -39 12 -127 26 -200 32 -71 6 -139 14
-149 18 -42 16 79 66 166 70 15 1 76 -8 135 -20z m6246 -126 c-3 -21 -14 -47
-23 -58 -10 -11 -25 -35 -35 -54 -31 -61 -227 -395 -251 -427 l-23 -31 30 -29
29 -28 31 30 c39 37 106 142 205 319 88 158 100 175 126 175 22 0 23 -14 3
-117 -8 -43 -15 -79 -15 -80 0 -2 9 -3 20 -3 30 0 24 -17 -9 -23 -40 -8 -95
-77 -136 -171 -18 -42 -52 -108 -74 -146 -23 -38 -41 -74 -41 -80 0 -15 50
-80 62 -80 5 0 50 84 101 187 51 103 97 188 103 190 18 6 22 -28 12 -102 -24
-179 -119 -460 -205 -610 -86 -149 -217 -314 -295 -372 -27 -19 -48 -39 -48
-44 0 -5 18 -9 41 -9 29 0 40 -4 36 -12 -2 -7 -15 -62 -27 -121 l-23 -108 -46
7 c-158 21 -266 65 -350 140 -73 66 -75 72 -55 161 21 96 14 167 -25 258 -36
86 -61 203 -61 289 0 36 12 145 26 243 23 155 25 197 20 328 -4 83 -8 162 -10
178 -4 37 6 41 38 16 52 -41 78 -118 96 -294 19 -181 36 -211 116 -202 68 7
140 63 248 191 105 125 171 214 273 367 59 87 121 159 138 159 2 0 1 -17 -2
-37z m-4323 -1132 c0 -56 89 -199 190 -305 179 -188 371 -286 560 -286 l76 0
18 -87 c9 -49 20 -96 22 -105 5 -16 -3 -18 -60 -18 -37 0 -83 -7 -105 -16 -40
-16 -40 -15 -86 16 -64 44 -95 55 -233 84 -189 39 -313 117 -410 259 l-32 46
14 123 c8 68 18 167 22 220 4 54 11 95 15 92 5 -3 9 -13 9 -23z m998 -564 c23
-60 45 -138 40 -141 -5 -4 -88 -36 -92 -36 -5 0 4 200 9 218 8 25 24 10 43
-41z m-1027 -103 c25 -30 163 -128 214 -152 l50 -23 0 -132 c0 -142 17 -219
58 -264 42 -47 154 -22 282 63 l70 45 63 -12 c50 -10 73 -10 108 -1 42 11 47
11 77 -12 41 -31 156 -86 181 -86 26 0 84 37 97 62 9 17 13 18 19 7 37 -69 48
-572 16 -762 -54 -334 -172 -652 -343 -928 -37 -60 -72 -118 -78 -129 -5 -11
-12 -20 -15 -20 -3 0 -52 138 -109 308 -180 536 -417 1182 -629 1712 -93 234
-132 345 -132 375 0 9 54 -30 71 -51z m-485 -221 c-3 -76 -3 -143 1 -149 9
-12 223 -104 243 -104 20 0 8 -14 -98 -110 -56 -52 -100 -100 -98 -106 8 -20
307 -494 582 -921 139 -216 250 -393 248 -393 -11 0 -286 381 -511 710 -237
345 -393 594 -393 625 0 8 45 49 100 91 55 42 100 81 100 86 0 6 -8 12 -17 14
-10 3 -61 22 -113 43 -112 46 -112 46 -81 180 12 49 21 104 21 123 0 32 6 48
18 48 3 0 2 -62 -2 -137z m-707 -18 c46 -81 86 -189 105 -279 17 -82 22 -281
7 -290 -4 -3 -11 26 -15 65 -9 94 -77 384 -114 487 -35 93 -29 98 17 17z
m2714 -59 c37 -57 67 -110 67 -118 0 -7 -18 -24 -41 -38 -68 -42 -68 -54 -2
-96 232 -148 212 -131 206 -172 -64 -449 -131 -671 -276 -915 -45 -77 -61 -84
-24 -10 51 100 118 287 152 420 28 115 95 470 95 509 0 6 -56 53 -124 103 -68
51 -132 101 -142 112 -18 20 -18 21 11 42 54 40 95 79 95 91 0 7 -22 50 -49
94 -27 45 -46 82 -43 82 4 0 37 -47 75 -104z m2015 -350 c34 -18 134 -120 130
-132 -2 -5 1 -10 5 -11 15 -2 392 -377 389 -386 -1 -5 2 -6 8 -2 6 4 18 1 26
-6 14 -12 14 -14 -3 -21 -14 -6 -12 -7 7 -4 15 3 35 -2 50 -14 25 -19 25 -19
-40 -5 -102 23 -205 64 -271 107 -34 21 -59 42 -55 45 3 3 13 0 23 -8 11 -9
14 -10 9 -2 -4 7 -16 18 -28 24 -15 8 -19 8 -14 0 13 -20 -10 -11 -32 12 -12
13 -19 27 -15 32 5 4 3 5 -3 2 -6 -4 -49 35 -97 87 -92 100 -132 125 -175 110
-35 -12 -68 -63 -76 -117 -12 -80 15 -170 106 -347 l83 -162 0 -117 c0 -115
-1 -118 -37 -193 -36 -71 -112 -158 -139 -158 -8 0 -8 4 0 14 9 11 9 16 0 22
-7 4 -9 3 -5 -4 3 -6 2 -13 -4 -17 -6 -4 -8 -11 -4 -16 7 -13 -88 -56 -155
-70 -30 -6 -96 -9 -147 -7 -117 5 -189 38 -245 112 -44 58 -59 104 -59 183 0
60 34 150 55 146 6 -1 22 8 35 19 l25 20 -27 -16 c-42 -25 -34 -3 10 27 58 40
124 57 210 56 42 -1 91 -4 107 -8 28 -6 24 -9 -50 -35 -144 -51 -184 -74 -216
-124 -56 -89 -32 -204 55 -253 36 -21 54 -24 136 -23 104 0 184 24 248 71 28
21 35 23 50 12 9 -7 14 -9 10 -5 -4 5 -2 16 5 25 11 14 10 14 -5 2 -25 -19
-22 -8 7 35 33 49 47 104 48 190 0 62 -4 79 -31 128 -35 60 -38 71 -20 60 7
-4 8 -3 4 5 -4 6 -11 9 -16 6 -11 -7 -104 149 -124 209 -48 142 -16 343 72
448 54 64 122 84 180 54z m-1364 -331 c1 -191 -2 -255 -16 -315 -25 -112 -39
-140 -33 -65 15 185 25 386 26 533 1 137 3 160 12 127 5 -22 11 -147 11 -280z"/>
<path d="M4924 7762 c-51 -18 -134 -75 -134 -93 0 -13 17 -11 75 7 73 22 205
20 288 -6 84 -26 109 -21 105 23 -2 24 -10 35 -32 46 -90 43 -217 52 -302 23z"/>
<path d="M4856 7501 c-8 -12 59 -70 103 -88 43 -18 140 -20 172 -3 35 18 69
51 69 67 0 11 -9 12 -37 6 -63 -13 -194 -3 -285 23 -9 3 -19 1 -22 -5z"/>
<path d="M5355 6873 c-52 -7 -200 -45 -210 -54 -6 -6 -3 -16 8 -27 16 -15 41
-17 221 -17 218 0 236 4 236 50 0 21 -8 25 -69 39 -67 15 -120 18 -186 9z"/>
<path d="M5270 6700 c0 -5 11 -22 24 -37 23 -26 29 -28 99 -28 61 0 81 4 104
21 15 12 29 28 31 37 3 13 -15 15 -127 15 -72 0 -131 -4 -131 -8z"/>
<path d="M8237 7124 c-4 -4 -7 -39 -7 -78 -1 -92 -21 -204 -53 -288 -28 -73
-23 -91 19 -63 65 43 112 171 100 275 -12 97 -40 173 -59 154z"/>
<path d="M5250 5525 c-10 -13 -7 -50 18 -203 17 -103 37 -245 43 -316 14 -154
6 -487 -15 -656 -19 -146 -19 -160 -2 -160 24 0 64 159 87 345 42 339 -32
1005 -112 1005 -3 0 -12 -7 -19 -15z"/>
<path d="M7910 5496 c0 -2 11 -6 25 -8 13 -3 22 -1 19 3 -5 9 -44 13 -44 5z"/>
<path d="M7824 5439 c-20 -22 -23 -28 -8 -19 18 11 50 50 41 50 -2 0 -16 -14
-33 -31z"/>
<path d="M8000 5466 c0 -2 8 -10 18 -17 15 -13 16 -12 3 4 -13 16 -21 21 -21
13z"/>
<path d="M7900 5429 c0 -5 5 -7 10 -4 6 3 10 8 10 11 0 2 -4 4 -10 4 -5 0 -10
-5 -10 -11z"/>
<path d="M8057 5405 c10 -13 25 -27 33 -30 8 -4 2 8 -14 24 -36 37 -43 40 -19
6z"/>
<path d="M7837 5409 c7 -7 15 -10 18 -7 3 3 -2 9 -12 12 -14 6 -15 5 -6 -5z"/>
<path d="M7897 5369 c7 -7 15 -10 18 -7 3 3 -2 9 -12 12 -14 6 -15 5 -6 -5z"/>
<path d="M8039 5378 c-5 -18 -6 -38 -1 -34 7 8 12 36 6 36 -2 0 -4 -1 -5 -2z"/>
<path d="M7940 5350 c0 -5 5 -10 11 -10 5 0 7 5 4 10 -3 6 -8 10 -11 10 -2 0
-4 -4 -4 -10z"/>
<path d="M7898 5343 c6 -2 18 -2 25 0 6 3 1 5 -13 5 -14 0 -19 -2 -12 -5z"/>
<path d="M7761 5333 c-1 -6 -4 -20 -7 -30 -5 -17 -5 -17 6 0 6 10 9 23 6 30
-3 9 -5 9 -5 0z"/>
<path d="M8180 5276 c0 -2 8 -10 18 -17 15 -13 16 -12 3 4 -13 16 -21 21 -21
13z"/>
<path d="M7741 5254 c0 -11 3 -14 6 -6 3 7 2 16 -1 19 -3 4 -6 -2 -5 -13z"/>
<path d="M7730 5203 c0 -18 2 -33 4 -33 9 0 13 39 5 51 -6 10 -9 4 -9 -18z"/>
<path d="M8115 5190 c10 -11 20 -20 23 -20 3 0 -3 9 -13 20 -10 11 -20 20 -23
20 -3 0 3 -9 13 -20z"/>
<path d="M8225 5170 c-3 -5 -1 -10 4 -10 6 0 11 5 11 10 0 6 -2 10 -4 10 -3 0
-8 -4 -11 -10z"/>
<path d="M7801 5154 c0 -11 3 -14 6 -6 3 7 2 16 -1 19 -3 4 -6 -2 -5 -13z"/>
<path d="M8200 5161 c0 -6 4 -13 10 -16 6 -3 7 1 4 9 -7 18 -14 21 -14 7z"/>
<path d="M8250 5160 c0 -5 5 -10 11 -10 5 0 7 5 4 10 -3 6 -8 10 -11 10 -2 0
-4 -4 -4 -10z"/>
<path d="M7726 5138 c3 -4 11 -5 19 -1 21 7 19 12 -4 10 -11 0 -18 -5 -15 -9z"/>
<path d="M8310 5147 c0 -2 15 -16 33 -33 l32 -29 -29 33 c-28 30 -36 37 -36
29z"/>
<path d="M8210 5120 c0 -6 -6 -8 -12 -4 -7 4 -9 3 -5 -1 10 -12 37 -15 37 -5
0 5 -4 12 -10 15 -5 3 -10 1 -10 -5z"/>
<path d="M8273 5116 c1 -11 9 -21 17 -23 10 -3 11 -2 4 4 -6 4 -14 15 -17 23
-5 11 -6 9 -4 -4z"/>
<path d="M7734 5085 c-3 -8 -4 -20 -2 -27 3 -7 7 -1 10 15 6 29 1 36 -8 12z"/>
<path d="M8380 5077 c0 -2 15 -16 33 -33 l32 -29 -29 33 c-28 30 -36 37 -36
29z"/>
<path d="M7823 5031 c0 -11 5 -18 9 -15 4 3 5 11 1 19 -7 21 -12 19 -10 -4z"/>
<path d="M7750 4995 c0 -9 6 -12 15 -9 8 4 15 7 15 9 0 2 -7 5 -15 9 -9 3 -15
0 -15 -9z"/>
<path d="M8367 4996 c17 -13 28 -14 40 -7 17 9 16 10 -2 9 -11 0 -29 3 -40 7
-17 6 -17 5 2 -9z"/>
<path d="M7821 4984 c0 -11 3 -14 6 -6 3 7 2 16 -1 19 -3 4 -6 -2 -5 -13z"/>
<path d="M8446 4975 c-3 -8 -1 -15 4 -15 6 0 10 7 10 15 0 8 -2 15 -4 15 -2 0
-6 -7 -10 -15z"/>
<path d="M7900 4871 c0 -7 -5 -9 -12 -5 -7 5 -8 3 -3 -5 5 -9 10 -10 18 -2 6
6 8 14 4 18 -4 3 -7 1 -7 -6z"/>
<path d="M7899 4833 c-13 -16 -12 -17 4 -4 15 12 21 9 19 -11 -1 -3 5 -9 13
-12 12 -4 12 -1 3 19 -13 30 -21 31 -39 8z"/>
<path d="M7946 4773 c-6 -14 -5 -15 5 -6 7 7 10 15 7 18 -3 3 -9 -2 -12 -12z"/>
<path d="M7880 4756 c0 -2 7 -9 15 -16 13 -11 14 -10 9 4 -5 14 -24 23 -24 12z"/>
<path d="M7956 4728 c3 -5 10 -6 15 -3 13 9 11 12 -6 12 -8 0 -12 -4 -9 -9z"/>
<path d="M7485 4680 c-4 -7 3 -8 22 -4 38 9 42 14 10 14 -14 0 -29 -5 -32 -10z"/>
<path d="M7992 4654 c5 -20 7 -47 4 -60 -3 -12 -2 -25 3 -28 8 -5 9 26 3 102
-1 12 -6 22 -11 22 -6 0 -5 -15 1 -36z"/>
<path d="M7428 4673 c6 -2 18 -2 25 0 6 3 1 5 -13 5 -14 0 -19 -2 -12 -5z"/>
<path d="M7535 4660 c-3 -5 -1 -10 4 -10 6 0 11 5 11 10 0 6 -2 10 -4 10 -3 0
-8 -4 -11 -10z"/>
<path d="M7350 4650 c-8 -5 -10 -10 -5 -10 6 0 17 5 25 10 8 5 11 10 5 10 -5
0 -17 -5 -25 -10z"/>
<path d="M7410 4605 c-14 -8 -20 -14 -14 -15 5 0 19 7 30 15 24 18 16 19 -16
0z"/>
<path d="M7356 4553 c-6 -14 -5 -15 5 -6 7 7 10 15 7 18 -3 3 -9 -2 -12 -12z"/>
<path d="M7945 4553 c3 -12 1 -24 -5 -28 -5 -3 -10 -14 -10 -23 1 -12 6 -8 16
11 11 20 12 32 4 45 -10 15 -10 14 -5 -5z"/>
<path d="M7246 4535 c-3 -9 -6 -22 -5 -28 0 -7 5 -1 10 12 5 13 8 26 5 28 -2
2 -6 -3 -10 -12z"/>
<path d="M7997 4544 c-4 -4 -7 -14 -7 -23 0 -11 3 -12 11 -4 6 6 10 16 7 23
-2 6 -7 8 -11 4z"/>
<path d="M7986 4485 c-3 -8 -1 -15 4 -15 6 0 10 7 10 15 0 8 -2 15 -4 15 -2 0
-6 -7 -10 -15z"/>
<path d="M7231 4464 c0 -11 3 -14 6 -6 3 7 2 16 -1 19 -3 4 -6 -2 -5 -13z"/>
<path d="M7921 4454 c0 -11 3 -14 6 -6 3 7 2 16 -1 19 -3 4 -6 -2 -5 -13z"/>
<path d="M7312 4430 c0 -14 2 -19 5 -12 2 6 2 18 0 25 -3 6 -5 1 -5 -13z"/>
<path d="M7975 4442 c-10 -7 -19 -52 -11 -52 2 0 9 14 15 30 11 33 11 33 -4
22z"/>
<path d="M7231 4424 c0 -11 3 -14 6 -6 3 7 2 16 -1 19 -3 4 -6 -2 -5 -13z"/>
<path d="M7905 4419 c-4 -6 -5 -12 -2 -15 2 -3 7 2 10 11 7 17 1 20 -8 4z"/>
<path d="M7321 4373 c-1 -12 4 -25 9 -28 12 -7 12 2 0 30 -8 19 -9 19 -9 -2z"/>
<path d="M7920 4333 c-19 -27 -25 -40 -14 -31 18 16 59 78 51 78 -2 0 -19 -21
-37 -47z"/>
<path d="M7256 4327 c3 -10 9 -15 12 -12 3 3 0 11 -7 18 -10 9 -11 8 -5 -6z"/>
<path d="M7810 4309 c-22 -18 -22 -19 -3 -10 12 6 25 16 28 21 9 15 3 12 -25
-11z"/>
<path d="M7275 4301 c-3 -5 -2 -12 3 -15 5 -3 9 1 9 9 0 17 -3 19 -12 6z"/>
<path d="M7405 4263 c26 -25 81 -42 68 -21 -2 5 -14 6 -25 2 -11 -3 -18 -2
-15 3 3 5 -9 17 -26 26 l-32 18 30 -28z"/>
<path d="M7773 4277 c0 -7 9 -13 19 -13 10 0 18 1 18 3 0 1 -8 7 -18 12 -13 7
-19 6 -19 -2z"/>
<path d="M7309 4246 c27 -29 33 -32 25 -13 -2 7 -14 19 -27 26 -21 13 -21 12
2 -13z"/>
<path d="M7650 4240 c0 -5 7 -7 15 -4 8 4 15 8 15 10 0 2 -7 4 -15 4 -8 0 -15
-4 -15 -10z"/>
<path d="M7503 4233 c19 -5 21 -14 7 -31 -6 -6 -7 -10 -4 -7 4 3 13 0 20 -6 8
-7 14 -6 20 2 4 7 3 9 -4 5 -6 -3 -13 -2 -17 4 -3 6 1 13 9 16 26 10 18 20
-16 21 -18 1 -25 -1 -15 -4z"/>
<path d="M7572 4233 c-13 -5 -7 -23 9 -23 6 0 7 5 4 10 -8 13 21 13 48 -1 21
-10 21 -10 3 5 -20 16 -40 19 -64 9z"/>
<path d="M7357 4209 c7 -7 15 -10 18 -7 3 3 -2 9 -12 12 -14 6 -15 5 -6 -5z"/>
<path d="M7397 4205 c-6 -15 10 -32 20 -21 4 3 1 6 -5 6 -6 0 -9 7 -6 15 4 8
4 15 1 15 -3 0 -7 -7 -10 -15z"/>
<path d="M7735 4201 c-11 -5 -27 -6 -35 -3 -11 4 -12 2 -4 -7 8 -8 18 -9 37
-2 15 6 27 13 27 16 0 6 1 6 -25 -4z"/>
<path d="M7450 4184 l-25 -14 26 2 c14 1 26 8 26 15 0 7 -1 13 -1 12 -1 -1
-12 -7 -26 -15z"/>
<path d="M7610 4171 c0 -5 9 -7 20 -4 11 3 20 7 20 9 0 2 -9 4 -20 4 -11 0
-20 -4 -20 -9z"/>
<path d="M7503 4163 c9 -2 23 -2 30 0 6 3 -1 5 -18 5 -16 0 -22 -2 -12 -5z"/>
<path d="M7563 4163 c9 -2 23 -2 30 0 6 3 -1 5 -18 5 -16 0 -22 -2 -12 -5z"/>
<path d="M8017 8684 c-4 -4 -7 -19 -7 -33 1 -23 13 -32 112 -79 95 -46 121
-64 193 -135 147 -147 187 -294 124 -462 -24 -63 -24 -67 3 -63 31 4 85 113
98 198 28 183 -53 337 -244 464 -101 67 -259 130 -279 110z"/>
<path d="M7193 7698 c-11 -14 -71 -390 -105 -662 -22 -168 -24 -176 -43 -168
-11 4 -48 6 -82 6 -173 -4 -312 -170 -215 -257 28 -25 88 -46 134 -47 50 0
142 35 183 71 49 43 63 98 91 344 30 269 54 425 66 425 20 0 82 -32 118 -60
85 -67 104 -179 49 -288 -30 -61 -31 -82 -4 -82 19 0 72 75 97 140 16 41 22
77 22 145 1 120 -20 163 -134 275 -48 47 -97 105 -109 128 -22 43 -49 54 -68
30z"/>
<path d="M2994 6809 c-42 -83 -108 -165 -251 -311 -181 -186 -263 -302 -235
-330 14 -14 36 4 199 158 72 68 154 154 183 191 83 110 158 289 132 315 -7 7
-15 0 -28 -23z"/>
<path d="M2450 4749 c-61 -12 -120 -57 -150 -115 l-25 -48 -3 -690 c-3 -770
-3 -761 63 -829 75 -77 17 -72 805 -72 l705 0 41 22 c56 30 109 94 123 148 7
30 11 257 11 708 0 736 1 728 -65 804 -68 80 -35 76 -790 78 -368 1 -690 -2
-715 -6z m665 -19 c-19 -8 -19 -9 3 -9 12 -1 22 3 22 9 0 6 134 9 363 7 l362
-2 37 -25 c28 -19 36 -30 32 -45 -4 -14 -3 -16 4 -7 11 16 25 1 47 -51 12 -29
15 -92 15 -334 0 -164 -1 -308 -4 -320 -3 -13 -2 -23 2 -23 4 0 7 -47 7 -104
0 -97 -1 -105 -19 -103 -10 1 -21 -4 -23 -10 -3 -7 0 -13 7 -13 6 0 8 5 5 10
-3 6 -1 10 5 10 12 0 17 -12 24 -52 3 -16 0 -28 -5 -28 -6 0 -7 -5 -3 -11 4
-7 6 -113 6 -236 -1 -207 -3 -229 -22 -268 -21 -44 -59 -78 -115 -105 -23 -11
-91 -15 -303 -18 -255 -3 -275 -2 -288 15 -13 16 -13 16 -8 1 6 -17 -6 -18
-161 -18 -130 0 -165 3 -159 13 6 9 4 9 -8 -1 -12 -9 -73 -12 -254 -10 -211 3
-243 5 -274 22 -49 26 -79 55 -103 101 -22 40 -22 46 -25 724 -2 592 -1 691
13 737 19 65 52 105 108 133 40 20 56 21 387 20 202 0 337 -4 325 -9z"/>
<path d="M2626 4713 c-4 -11 -1 -11 14 -3 24 13 25 17 5 17 -8 0 -16 -6 -19
-14z"/>
<path d="M2728 4723 c7 -3 16 -2 19 1 4 3 -2 6 -13 5 -11 0 -14 -3 -6 -6z"/>
<path d="M2882 4725 c4 -4 0 -14 -10 -21 -9 -7 -12 -14 -6 -14 6 0 17 6 23 14
9 11 9 16 -1 22 -7 4 -10 4 -6 -1z"/>
<path d="M2940 4725 c0 -7 30 -13 34 -7 3 4 -4 9 -15 9 -10 1 -19 0 -19 -2z"/>
<path d="M3039 4713 c-13 -16 -12 -17 3 -5 9 8 22 11 28 7 5 -3 10 -1 10 4 0
17 -26 13 -41 -6z"/>
<path d="M3216 4721 c-4 -6 -2 -11 4 -11 7 0 9 -7 5 -17 -5 -14 -3 -15 5 -6 8
7 9 17 2 28 -6 12 -11 14 -16 6z"/>
<path d="M3430 4720 c-18 -12 -2 -12 25 0 13 6 15 9 5 9 -8 0 -22 -4 -30 -9z"/>
<path d="M3506 4713 c-6 -14 -5 -15 5 -6 7 7 10 15 7 18 -3 3 -9 -2 -12 -12z"/>
<path d="M3643 4705 c0 -8 4 -12 9 -9 5 3 6 10 3 15 -9 13 -12 11 -12 -6z"/>
<path d="M3716 4707 c3 -10 9 -15 12 -12 3 3 0 11 -7 18 -10 9 -11 8 -5 -6z"/>
<path d="M3820 4711 c0 -6 4 -13 10 -16 6 -3 7 1 4 9 -7 18 -14 21 -14 7z"/>
<path d="M3593 4695 c-10 -11 -9 -13 6 -12 11 1 17 7 14 14 -6 16 -5 16 -20
-2z"/>
<path d="M3194 4689 c-3 -6 -1 -16 4 -21 8 -8 11 -5 9 11 -1 24 -3 25 -13 10z"/>
<path d="M3390 4696 c0 -2 8 -10 18 -17 15 -13 16 -12 3 4 -13 16 -21 21 -21
13z"/>
<path d="M3790 4691 c0 -5 7 -12 16 -15 14 -5 15 -4 4 9 -14 17 -20 19 -20 6z"/>
<path d="M3884 4689 c-3 -6 2 -18 12 -27 17 -16 17 -16 5 0 -7 9 -10 22 -6 28
3 5 4 10 1 10 -3 0 -8 -5 -12 -11z"/>
<path d="M2509 4673 c-13 -16 -12 -17 4 -4 9 7 17 15 17 17 0 8 -8 3 -21 -13z"/>
<path d="M2585 4680 c-3 -5 -1 -10 4 -10 6 0 11 5 11 10 0 6 -2 10 -4 10 -3 0
-8 -4 -11 -10z"/>
<path d="M3120 4681 c0 -6 4 -13 10 -16 6 -3 7 1 4 9 -7 18 -14 21 -14 7z"/>
<path d="M2418 4663 c7 -3 16 -2 19 1 4 3 -2 6 -13 5 -11 0 -14 -3 -6 -6z"/>
<path d="M3343 4657 c0 -7 12 -13 26 -14 14 -1 19 1 11 4 -8 3 -20 10 -26 14
-6 5 -11 4 -11 -4z"/>
<path d="M3110 4654 c0 -5 -21 -8 -47 -7 l-48 1 45 -7 c43 -6 71 1 57 16 -4 3
-7 2 -7 -3z"/>
<path d="M3550 4650 c-9 -6 -10 -10 -3 -10 6 0 15 5 18 10 8 12 4 12 -15 0z"/>
<path d="M3665 4650 c-3 -5 -1 -10 4 -10 6 0 11 5 11 10 0 6 -2 10 -4 10 -3 0
-8 -4 -11 -10z"/>
<path d="M3726 4647 c3 -10 9 -15 12 -12 3 3 0 11 -7 18 -10 9 -11 8 -5 -6z"/>
<path d="M3812 4651 c-11 -7 -11 -9 0 -14 9 -3 15 1 15 9 0 8 -1 14 -1 14 -1
0 -7 -4 -14 -9z"/>
<path d="M2645 4640 c-3 -5 -1 -10 4 -10 6 0 11 5 11 10 0 6 -2 10 -4 10 -3 0
-8 -4 -11 -10z"/>
<path d="M2695 4639 c4 -5 16 -9 27 -9 26 0 19 9 -11 15 -12 2 -19 0 -16 -6z"/>
<path d="M2758 4643 c7 -3 16 -2 19 1 4 3 -2 6 -13 5 -11 0 -14 -3 -6 -6z"/>
<path d="M3446 4634 c-5 -12 -16 -15 -46 -11 l-40 4 0 -83 0 -84 -45 0 -45 0
0 80 0 80 -45 0 -45 0 0 -77 0 -78 -40 -1 -40 -1 0 79 c0 74 -1 78 -24 84 -54
13 -61 5 -64 -79 l-3 -77 -42 0 -42 0 0 76 c0 42 -2 77 -5 79 -3 2 -25 1 -48
-2 l-42 -6 0 -78 0 -79 -40 0 -40 0 0 80 0 80 -50 0 -50 0 0 -78 0 -77 -35
-19 c-31 -17 -52 -48 -47 -68 1 -5 -36 -8 -83 -8 l-85 0 0 -45 0 -45 80 0 80
0 0 -45 0 -45 -80 0 -80 0 0 -50 0 -50 80 0 80 0 0 -45 0 -44 -82 -3 -83 -3 0
-45 0 -45 88 -3 87 -3 0 -39 0 -39 -87 -3 -86 -3 -1 -45 -1 -45 88 0 87 0 0
-47 0 -48 -84 0 -84 0 -4 -41 c-2 -22 -2 -42 1 -45 2 -2 42 -4 88 -4 l83 0 0
-45 0 -45 -85 0 -85 0 0 -45 0 -45 90 0 c68 0 90 -3 90 -13 0 -16 37 -51 63
-60 14 -5 17 -20 17 -97 l0 -90 45 0 45 0 0 90 0 90 43 0 42 0 0 -87 0 -88 48
-3 47 -3 0 90 0 91 40 0 40 0 0 -90 0 -90 45 0 45 0 0 90 0 90 40 0 40 0 0
-90 0 -90 50 0 50 0 0 90 0 90 40 0 40 0 0 -90 0 -90 45 0 45 0 0 90 0 90 45
0 45 0 0 -90 0 -90 45 0 44 0 3 93 3 92 28 3 c17 2 38 16 55 38 27 35 27 35
102 33 l75 -2 3 46 3 47 -80 0 -81 0 0 45 0 45 80 0 80 0 0 45 0 45 -91 0
c-79 0 -90 2 -85 16 3 9 6 29 6 45 l0 29 86 0 85 0 -3 43 -3 42 -82 9 -83 9 0
38 0 39 85 0 85 0 0 44 c0 53 -6 56 -101 56 l-69 0 0 45 0 45 86 0 c74 0 85 2
80 16 -3 9 -6 31 -6 50 l0 34 -85 0 -85 0 2 45 3 45 83 0 82 0 0 45 0 45 -78
0 -79 0 -24 38 c-15 23 -36 41 -56 47 l-33 9 0 78 0 78 -45 0 -45 0 0 -80 0
-80 -41 0 -41 0 4 95 c1 52 2 95 2 95 -1 0 -5 -7 -8 -16z m83 -368 c16 -9 31
-26 35 -39 3 -13 3 -178 0 -368 -6 -373 -7 -379 -62 -400 -26 -10 -668 -4
-720 7 -47 10 -51 40 -46 424 4 299 7 357 20 370 12 12 59 16 257 21 323 8
479 3 516 -15z"/>
<path d="M2816 4261 c-3 -4 6 -6 19 -3 14 2 25 6 25 8 0 8 -39 4 -44 -5z"/>
<path d="M2928 4263 c6 -2 18 -2 25 0 6 3 1 5 -13 5 -14 0 -19 -2 -12 -5z"/>
<path d="M3008 4263 c7 -3 16 -2 19 1 4 3 -2 6 -13 5 -11 0 -14 -3 -6 -6z"/>
<path d="M3093 4263 c15 -2 37 -2 50 0 12 2 0 4 -28 4 -27 0 -38 -2 -22 -4z"/>
<path d="M3170 4266 c0 -8 61 -12 66 -4 3 4 -11 8 -30 8 -20 0 -36 -2 -36 -4z"/>
<path d="M3258 4263 c7 -3 16 -2 19 1 4 3 -2 6 -13 5 -11 0 -14 -3 -6 -6z"/>
<path d="M3398 4263 c7 -3 16 -2 19 1 4 3 -2 6 -13 5 -11 0 -14 -3 -6 -6z"/>
<path d="M3430 4266 c0 -9 40 -13 46 -5 3 5 -6 9 -20 9 -14 0 -26 -2 -26 -4z"/>
<path d="M2762 4248 c-15 -15 -16 -48 -1 -48 5 0 7 4 4 10 -3 5 -1 19 5 30 12
23 10 26 -8 8z"/>
<path d="M2858 4243 c7 -3 16 -2 19 1 4 3 -2 6 -13 5 -11 0 -14 -3 -6 -6z"/>
<path d="M2990 4241 c0 -6 4 -13 10 -16 6 -3 7 1 4 9 -7 18 -14 21 -14 7z"/>
<path d="M3264 4234 c-18 -14 -18 -15 4 -4 12 6 22 13 22 15 0 8 -5 6 -26 -11z"/>
<path d="M3538 4223 c5 -21 7 -23 10 -9 2 10 0 22 -6 28 -6 6 -7 0 -4 -19z"/>
<path d="M3165 4209 c-24 -5 -19 -6 23 -6 28 0 52 3 52 7 0 9 -34 9 -75 -1z"/>
<path d="M3384 4207 c-4 -6 -4 -9 1 -5 4 4 20 1 36 -8 16 -8 29 -12 29 -10 0
3 -13 12 -29 21 -23 12 -31 12 -37 2z"/>
<path d="M2843 4190 c-1 -11 2 -20 7 -20 4 0 7 7 6 15 -3 23 -12 26 -13 5z"/>
<path d="M2920 4206 c0 -2 7 -7 16 -10 8 -3 12 -2 9 4 -6 10 -25 14 -25 6z"/>
<path d="M2985 4201 c-3 -6 3 -9 14 -8 11 0 17 5 15 9 -7 11 -22 10 -29 -1z"/>
<path d="M3268 4203 c12 -2 30 -2 40 0 9 3 -1 5 -23 4 -22 0 -30 -2 -17 -4z"/>
<path d="M3338 4203 c7 -3 16 -2 19 1 4 3 -2 6 -13 5 -11 0 -14 -3 -6 -6z"/>
<path d="M2752 4165 c0 -16 2 -22 5 -12 2 9 2 23 0 30 -3 6 -5 -1 -5 -18z"/>
<path d="M3048 4180 c-141 -4 -170 -8 -185 -22 -15 -16 -18 -46 -20 -260 -2
-134 -1 -257 2 -275 11 -64 8 -63 310 -63 272 0 274 0 289 22 14 19 16 64 16
291 l0 268 -25 24 c-27 28 -19 28 -387 15z"/>
<path d="M3542 4170 c0 -14 2 -19 5 -12 2 6 2 18 0 25 -3 6 -5 1 -5 -13z"/>
<path d="M2795 4170 c-13 -6 -15 -9 -5 -9 8 0 22 4 30 9 18 12 2 12 -25 0z"/>
<path d="M2751 4114 c0 -11 3 -14 6 -6 3 7 2 16 -1 19 -3 4 -6 -2 -5 -13z"/>
<path d="M3535 4110 c3 -5 8 -10 11 -10 2 0 4 5 4 10 0 6 -5 10 -11 10 -5 0
-7 -4 -4 -10z"/>
<path d="M2752 4058 c1 -18 3 -27 5 -20 3 6 9 9 15 6 6 -4 6 1 -1 13 -6 11 -7
23 -4 27 3 3 1 6 -5 6 -6 0 -10 -15 -10 -32z"/>
<path d="M3542 4070 c0 -14 2 -19 5 -12 2 6 2 18 0 25 -3 6 -5 1 -5 -13z"/>
<path d="M2823 4040 c0 -25 2 -35 4 -22 2 12 2 32 0 45 -2 12 -4 2 -4 -23z"/>
<path d="M2786 4033 c-6 -14 -5 -15 5 -6 7 7 10 15 7 18 -3 3 -9 -2 -12 -12z"/>
<path d="M3541 4004 c0 -11 3 -14 6 -6 3 7 2 16 -1 19 -3 4 -6 -2 -5 -13z"/>
<path d="M2816 3965 c4 -8 8 -15 10 -15 2 0 4 7 4 15 0 8 -4 15 -10 15 -5 0
-7 -7 -4 -15z"/>
<path d="M2795 3920 c-3 -5 -1 -10 4 -10 6 0 11 5 11 10 0 6 -2 10 -4 10 -3 0
-8 -4 -11 -10z"/>
<path d="M3542 3890 c0 -19 2 -27 5 -17 2 9 2 25 0 35 -3 9 -5 1 -5 -18z"/>
<path d="M2752 3865 c0 -16 2 -22 5 -12 2 9 2 23 0 30 -3 6 -5 -1 -5 -18z"/>
<path d="M3491 3870 c-13 -11 -19 -20 -14 -20 6 0 18 9 28 20 23 25 17 25 -14
0z"/>
<path d="M2816 3842 c-2 -4 -1 -14 4 -22 7 -11 9 -9 7 8 -1 24 -3 26 -11 14z"/>
<path d="M3503 3831 c0 -11 5 -18 9 -15 4 3 5 11 1 19 -7 21 -12 19 -10 -4z"/>
<path d="M3541 3834 c0 -11 3 -14 6 -6 3 7 2 16 -1 19 -3 4 -6 -2 -5 -13z"/>
<path d="M2752 3799 c1 -17 4 -25 8 -18 7 10 2 49 -5 49 -2 0 -3 -14 -3 -31z"/>
<path d="M2823 3765 c0 -22 2 -30 4 -17 2 12 2 30 0 40 -3 9 -5 -1 -4 -23z"/>
<path d="M3537 3771 c-2 -10 -1 -24 3 -30 4 -7 7 1 8 18 1 35 -3 40 -11 12z"/>
<path d="M2750 3730 c0 -6 7 -10 15 -10 8 0 15 2 15 4 0 2 -7 6 -15 10 -8 3
-15 1 -15 -4z"/>
<path d="M3490 3720 c0 -5 5 -10 11 -10 5 0 7 5 4 10 -3 6 -8 10 -11 10 -2 0
-4 -4 -4 -10z"/>
<path d="M2750 3689 c0 -5 5 -7 10 -4 6 3 10 8 10 11 0 2 -4 4 -10 4 -5 0 -10
-5 -10 -11z"/>
<path d="M3470 3615 c0 -14 2 -25 4 -25 2 0 6 11 8 25 3 14 1 25 -3 25 -5 0
-9 -11 -9 -25z"/>
<path d="M2800 3626 c0 -2 7 -7 16 -10 8 -3 12 -2 9 4 -6 10 -25 14 -25 6z"/>
<path d="M3543 3595 c0 -22 2 -30 4 -17 2 12 2 30 0 40 -3 9 -5 -1 -4 -23z"/>
<path d="M2833 3582 c0 -12 5 -22 9 -22 11 0 10 12 -2 30 -7 12 -9 10 -7 -8z"/>
<path d="M2867 3549 c7 -7 15 -10 18 -7 3 3 -2 9 -12 12 -14 6 -15 5 -6 -5z"/>
<path d="M3527 3549 c7 -7 15 -10 18 -7 3 3 -2 9 -12 12 -14 6 -15 5 -6 -5z"/>
<path d="M2793 3534 c0 -9 4 -11 10 -5 5 5 17 7 26 4 9 -4 13 -3 10 1 -13 14
-46 14 -46 0z"/>
<path d="M3108 3542 c12 -8 72 -4 72 4 0 2 -19 4 -42 4 -26 0 -38 -4 -30 -8z"/>
<path d="M3208 3543 c6 -2 18 -2 25 0 6 3 1 5 -13 5 -14 0 -19 -2 -12 -5z"/>
<path d="M3255 3540 c4 -6 11 -8 16 -5 14 9 11 15 -7 15 -8 0 -12 -5 -9 -10z"/>
<path d="M3298 3543 c7 -3 16 -2 19 1 4 3 -2 6 -13 5 -11 0 -14 -3 -6 -6z"/>
<path d="M3338 3538 c5 -5 16 -8 23 -6 8 3 3 7 -10 11 -17 4 -21 3 -13 -5z"/>
<path d="M3400 3542 c0 -4 9 -8 20 -8 11 0 20 4 20 8 0 4 -9 8 -20 8 -11 0
-20 -4 -20 -8z"/>
<path d="M2751 3529 c0 -8 5 -23 12 -34 11 -14 16 -15 22 -5 6 9 4 11 -5 5
-10 -6 -12 -4 -7 9 4 9 3 14 -2 11 -5 -3 -12 3 -14 12 -4 14 -5 14 -6 2z"/>
<path d="M2906 3523 c-6 -14 -5 -15 5 -6 7 7 10 15 7 18 -3 3 -9 -2 -12 -12z"/>
<path d="M2943 3521 c0 -11 5 -18 9 -15 4 3 5 11 1 19 -7 21 -12 19 -10 -4z"/>
<path d="M3457 3525 c3 -8 9 -12 14 -9 12 7 11 11 -5 17 -10 4 -13 1 -9 -8z"/>
<path d="M3320 3520 c8 -5 20 -10 25 -10 6 0 3 5 -5 10 -8 5 -19 10 -25 10 -5
0 -3 -5 5 -10z"/>
<path d="M3512 3496 c-32 -18 -37 -25 -13 -19 11 3 26 11 32 19 13 16 12 16
-19 0z"/>
<path d="M2960 3491 c0 -7 -6 -11 -15 -8 -8 4 -17 2 -20 -3 -4 -6 17 -9 52 -9
34 1 45 4 28 6 -16 3 -33 10 -37 16 -6 9 -8 8 -8 -2z"/>
<path d="M3065 3490 c-4 -6 -11 -8 -16 -5 -5 4 -9 1 -9 -4 0 -6 17 -10 38 -10
23 1 29 3 14 6 -12 2 -20 9 -17 14 4 5 4 9 1 9 -3 0 -8 -5 -11 -10z"/>
<path d="M3144 3492 c3 -6 -2 -13 -11 -15 -14 -4 -13 -5 5 -6 23 -1 30 13 10
25 -6 4 -8 3 -4 -4z"/>
<path d="M2818 3473 c17 -2 47 -2 65 0 17 2 3 4 -33 4 -36 0 -50 -2 -32 -4z"/>
<path d="M3303 3463 c9 -2 23 -2 30 0 6 3 -1 5 -18 5 -16 0 -22 -2 -12 -5z"/>
<path d="M3510 4634 c0 -8 5 -12 10 -9 6 4 8 11 5 16 -9 14 -15 11 -15 -7z"/>
<path d="M2961 4624 c0 -11 3 -14 6 -6 3 7 2 16 -1 19 -3 4 -6 -2 -5 -13z"/>
<path d="M2486 4615 c-9 -26 -7 -32 5 -12 6 10 9 21 6 23 -2 3 -7 -2 -11 -11z"/>
<path d="M2625 4610 c3 -5 8 -10 11 -10 2 0 4 5 4 10 0 6 -5 10 -11 10 -5 0
-7 -4 -4 -10z"/>
<path d="M2762 4590 c0 -19 2 -27 5 -17 2 9 2 25 0 35 -3 9 -5 1 -5 -18z"/>
<path d="M2943 4575 c0 -27 2 -38 4 -22 2 15 2 37 0 50 -2 12 -4 0 -4 -28z"/>
<path d="M3291 4604 c0 -11 3 -14 6 -6 3 7 2 16 -1 19 -3 4 -6 -2 -5 -13z"/>
<path d="M3110 4598 c0 -4 4 -8 9 -8 6 0 12 4 15 8 3 5 -1 9 -9 9 -8 0 -15 -4
-15 -9z"/>
<path d="M3507 4590 c-3 -11 -1 -20 4 -20 5 0 9 9 9 20 0 11 -2 20 -4 20 -2 0
-6 -9 -9 -20z"/>
<path d="M2627 4561 c-4 -17 -3 -21 5 -13 5 5 8 16 6 23 -3 8 -7 3 -11 -10z"/>
<path d="M2811 4564 c0 -11 3 -14 6 -6 3 7 2 16 -1 19 -3 4 -6 -2 -5 -13z"/>
<path d="M2326 4554 c-3 -8 -11 -12 -17 -8 -8 4 -9 3 -5 -4 9 -15 36 -4 36 14
0 19 -6 18 -14 -2z"/>
<path d="M2365 4560 c-3 -6 1 -7 9 -4 18 7 21 14 7 14 -6 0 -13 -4 -16 -10z"/>
<path d="M2514 4559 c1 -7 12 -16 25 -20 14 -6 20 -5 16 1 -3 6 -12 10 -20 10
-7 0 -16 5 -18 10 -3 6 -4 5 -3 -1z"/>
<path d="M3110 4559 c0 -5 5 -7 10 -4 6 3 10 8 10 11 0 2 -4 4 -10 4 -5 0 -10
-5 -10 -11z"/>
<path d="M3291 4554 c0 -11 3 -14 6 -6 3 7 2 16 -1 19 -3 4 -6 -2 -5 -13z"/>
<path d="M3327 4563 c-4 -3 -7 -11 -7 -17 0 -6 5 -5 12 2 6 6 9 14 7 17 -3 3
-9 2 -12 -2z"/>
<path d="M3508 4520 c-2 -22 0 -40 4 -40 5 0 8 18 8 40 0 22 -2 40 -4 40 -2 0
-6 -18 -8 -40z"/>
<path d="M3890 4553 c0 -6 7 -16 15 -23 8 -7 12 -17 8 -23 -3 -6 -1 -7 5 -3
15 9 15 9 -8 36 -11 13 -20 18 -20 13z"/>
<path d="M2981 4534 c0 -11 3 -14 6 -6 3 7 2 16 -1 19 -3 4 -6 -2 -5 -13z"/>
<path d="M3140 4541 c0 -7 -4 -9 -10 -6 -5 3 -10 1 -10 -4 0 -6 4 -11 9 -11
13 0 25 20 17 27 -3 4 -6 1 -6 -6z"/>
<path d="M3830 4540 c0 -5 5 -10 11 -10 5 0 7 5 4 10 -3 6 -8 10 -11 10 -2 0
-4 -4 -4 -10z"/>
<path d="M2435 4530 c-3 -5 -2 -10 4 -10 5 0 13 5 16 10 3 6 2 10 -4 10 -5 0
-13 -4 -16 -10z"/>
<path d="M3158 4518 c-2 -14 -13 -25 -28 -29 -23 -7 -23 -7 6 -6 25 1 30 5 32
29 3 33 -5 38 -10 6z"/>
<path d="M2348 4523 c6 -2 9 -10 6 -15 -4 -7 -2 -8 5 -4 13 9 5 26 -12 25 -9
0 -8 -2 1 -6z"/>
<path d="M2627 4510 c-3 -11 -1 -20 4 -20 5 0 9 9 9 20 0 11 -2 20 -4 20 -2 0
-6 -9 -9 -20z"/>
<path d="M3481 4514 c0 -11 3 -14 6 -6 3 7 2 16 -1 19 -3 4 -6 -2 -5 -13z"/>
<path d="M2760 4500 c0 -11 2 -20 4 -20 2 0 6 9 9 20 3 11 1 20 -4 20 -5 0 -9
-9 -9 -20z"/>
<path d="M2941 4502 c-1 -19 4 -23 21 -20 12 2 23 9 24 16 1 7 0 8 -3 2 -8
-16 -31 -12 -36 8 -3 12 -5 11 -6 -6z"/>
<path d="M3315 4510 c3 -5 8 -10 11 -10 2 0 4 5 4 10 0 6 -5 10 -11 10 -5 0
-7 -4 -4 -10z"/>
<path d="M3862 4497 c7 -12 11 -26 10 -30 -1 -5 2 -6 8 -2 8 5 8 11 1 19 -6 7
-8 15 -5 18 2 3 -2 8 -11 12 -13 5 -14 2 -3 -17z"/>
<path d="M2550 4506 c0 -2 7 -7 16 -10 8 -3 12 -2 9 4 -6 10 -25 14 -25 6z"/>
<path d="M3695 4499 c-4 -6 -5 -12 -2 -15 2 -3 7 2 10 11 7 17 1 20 -8 4z"/>
<path d="M3797 4489 c7 -7 15 -10 18 -7 3 3 -2 9 -12 12 -14 6 -15 5 -6 -5z"/>
<path d="M2524 4479 c-3 -6 -2 -15 3 -20 5 -5 9 -1 9 11 0 23 -2 24 -12 9z"/>
<path d="M3835 4480 c-3 -5 -1 -10 4 -10 6 0 11 5 11 10 0 6 -2 10 -4 10 -3 0
-8 -4 -11 -10z"/>
<path d="M2590 4460 c-8 -5 -12 -11 -10 -14 3 -2 14 2 24 10 22 15 10 19 -14
4z"/>
<path d="M3915 4440 c-3 -6 1 -7 9 -4 18 7 21 14 7 14 -6 0 -13 -4 -16 -10z"/>
<path d="M3967 4427 c-3 -8 1 -14 8 -14 7 0 11 6 8 14 -3 7 -6 13 -8 13 -2 0
-5 -6 -8 -13z"/>
<path d="M2530 4400 c-13 -8 -12 -10 3 -10 9 0 17 5 17 10 0 12 -1 12 -20 0z"/>
<path d="M3770 4400 c-9 -6 -10 -10 -3 -10 6 0 15 5 18 10 8 12 4 12 -15 0z"/>
<path d="M2381 4384 c0 -11 3 -14 6 -6 3 7 2 16 -1 19 -3 4 -6 -2 -5 -13z"/>
<path d="M3968 4383 c7 -3 16 -2 19 1 4 3 -2 6 -13 5 -11 0 -14 -3 -6 -6z"/>
<path d="M2325 4350 c-3 -6 1 -7 9 -4 18 7 21 14 7 14 -6 0 -13 -4 -16 -10z"/>
<path d="M2378 4348 c-4 -10 -5 -25 -2 -33 4 -8 1 -22 -6 -30 -11 -13 -10 -14
3 -10 8 4 18 2 22 -4 3 -6 21 -10 38 -10 l32 2 -35 6 c-33 6 -35 9 -40 51 -3
31 -7 40 -12 28z"/>
<path d="M2330 4330 c-12 -7 -10 -9 7 -7 12 0 19 5 17 9 -6 10 -6 10 -24 -2z"/>
<path d="M2478 4263 c7 -3 16 -2 19 1 4 3 -2 6 -13 5 -11 0 -14 -3 -6 -6z"/>
<path d="M2540 4241 c0 -16 -6 -32 -12 -34 -8 -3 -6 -6 5 -6 13 -1 17 7 17 34
0 19 -2 35 -5 35 -3 0 -5 -13 -5 -29z"/>
<path d="M3818 4263 c7 -3 16 -2 19 1 4 3 -2 6 -13 5 -11 0 -14 -3 -6 -6z"/>
<path d="M2376 4245 c4 -8 11 -15 16 -15 6 0 5 6 -2 15 -7 8 -14 15 -16 15 -2
0 -1 -7 2 -15z"/>
<path d="M3967 4249 c7 -7 15 -10 18 -7 3 3 -2 9 -12 12 -14 6 -15 5 -6 -5z"/>
<path d="M3866 4228 c3 -5 10 -6 15 -3 13 9 11 12 -6 12 -8 0 -12 -4 -9 -9z"/>
<path d="M2400 4215 c-7 -9 -8 -15 -2 -15 5 0 12 7 16 15 3 8 4 15 2 15 -2 0
-9 -7 -16 -15z"/>
<path d="M3790 4209 c0 -5 5 -7 10 -4 6 3 10 8 10 11 0 2 -4 4 -10 4 -5 0 -10
-5 -10 -11z"/>
<path d="M2443 4203 c9 -2 25 -2 35 0 9 3 1 5 -18 5 -19 0 -27 -2 -17 -5z"/>
<path d="M2372 4134 c-1 -29 3 -46 16 -55 15 -12 16 -12 5 1 -6 8 -13 33 -16
55 l-4 40 -1 -41z"/>
<path d="M3910 4151 c0 -5 5 -13 10 -16 6 -3 10 -2 10 4 0 5 -4 13 -10 16 -5
3 -10 2 -10 -4z"/>
<path d="M2428 4073 c6 -2 18 -2 25 0 6 3 1 5 -13 5 -14 0 -19 -2 -12 -5z"/>
<path d="M2541 4064 c0 -11 3 -14 6 -6 3 7 2 16 -1 19 -3 4 -6 -2 -5 -13z"/>
<path d="M3838 4073 c7 -3 16 -2 19 1 4 3 -2 6 -13 5 -11 0 -14 -3 -6 -6z"/>
<path d="M3740 4055 c0 -8 4 -15 8 -15 5 0 9 7 9 15 0 8 -4 15 -9 15 -4 0 -8
-7 -8 -15z"/>
<path d="M3878 4043 c7 -3 16 -2 19 1 4 3 -2 6 -13 5 -11 0 -14 -3 -6 -6z"/>
<path d="M2424 4033 c5 -9 1 -13 -12 -13 -11 0 -26 -8 -33 -17 -12 -16 -12
-16 1 -6 8 6 28 13 44 15 28 3 28 4 11 18 -11 9 -16 10 -11 3z"/>
<path d="M2541 4024 c0 -11 3 -14 6 -6 3 7 2 16 -1 19 -3 4 -6 -2 -5 -13z"/>
<path d="M3815 4031 c-6 -5 -19 -11 -30 -14 -11 -3 3 -5 30 -4 28 0 40 2 27 4
-12 2 -20 9 -17 14 8 12 2 12 -10 0z"/>
<path d="M2490 4020 c-12 -8 -9 -9 12 -8 15 1 24 6 22 10 -7 10 -16 10 -34 -2z"/>
<path d="M3740 4020 c0 -5 5 -10 10 -10 6 0 10 5 10 10 0 6 -4 10 -10 10 -5 0
-10 -4 -10 -10z"/>
<path d="M3910 4026 c0 -2 9 -6 20 -9 11 -3 20 -1 20 4 0 5 -9 9 -20 9 -11 0
-20 -2 -20 -4z"/>
<path d="M3917 3983 c-11 -10 -8 -73 3 -73 5 0 14 9 20 20 6 12 7 20 1 20 -5
0 -12 -8 -15 -17 -3 -10 -4 -1 -3 20 2 20 2 37 2 37 -1 0 -5 -3 -8 -7z"/>
<path d="M2371 3972 c-1 -8 -6 -10 -13 -6 -10 5 -10 4 -1 -6 15 -16 28 -8 20
12 -4 11 -6 11 -6 0z"/>
<path d="M3934 3968 c-4 -7 -4 -10 1 -6 4 4 15 2 24 -5 14 -11 14 -10 2 6 -16
20 -18 21 -27 5z"/>
<path d="M2295 3950 c-3 -5 -1 -10 4 -10 6 0 11 5 11 10 0 6 -2 10 -4 10 -3 0
-8 -4 -11 -10z"/>
<path d="M2365 3930 c3 -5 8 -10 11 -10 2 0 4 5 4 10 0 6 -5 10 -11 10 -5 0
-7 -4 -4 -10z"/>
<path d="M2447 3883 c18 -2 50 -2 70 0 21 2 7 4 -32 4 -38 0 -55 -2 -38 -4z"/>
<path d="M3818 3868 c2 -10 -1 -18 -7 -18 -6 0 -11 -4 -11 -8 0 -5 7 -9 15 -9
8 0 13 3 10 5 -8 8 16 32 26 26 5 -3 6 2 3 10 -8 22 -42 16 -36 -6z"/>
<path d="M3868 3883 c7 -3 16 -2 19 1 4 3 -2 6 -13 5 -11 0 -14 -3 -6 -6z"/>
<path d="M2375 3860 c-8 -13 5 -13 25 0 13 8 13 10 -2 10 -9 0 -20 -4 -23 -10z"/>
<path d="M3761 3844 c0 -11 3 -14 6 -6 3 7 2 16 -1 19 -3 4 -6 -2 -5 -13z"/>
<path d="M2394 3839 c-3 -5 6 -9 20 -9 31 0 34 6 6 13 -11 3 -23 1 -26 -4z"/>
<path d="M2525 3840 c-19 -8 -19 -9 3 -9 12 -1 22 4 22 9 0 6 -1 10 -2 9 -2 0
-12 -4 -23 -9z"/>
<path d="M3940 3815 c0 -5 4 -16 9 -23 6 -10 11 -9 22 4 11 14 11 16 0 10 -8
-5 -17 -3 -22 5 -5 8 -9 10 -9 4z"/>
<path d="M3912 3775 c0 -16 2 -22 5 -12 2 9 2 23 0 30 -3 6 -5 -1 -5 -18z"/>
<path d="M2367 3773 c-3 -5 -1 -17 4 -28 7 -17 8 -17 8 8 1 27 -4 34 -12 20z"/>
<path d="M2433 3703 c15 -2 37 -2 50 0 12 2 0 4 -28 4 -27 0 -38 -2 -22 -4z"/>
<path d="M2510 3701 c0 -5 10 -7 23 -3 20 5 21 4 7 -14 -14 -18 -14 -18 3 -5
24 19 21 31 -8 31 -14 0 -25 -4 -25 -9z"/>
<path d="M3741 3684 c0 -11 3 -14 6 -6 3 7 2 16 -1 19 -3 4 -6 -2 -5 -13z"/>
<path d="M3778 3693 c12 -2 30 -2 40 0 9 3 -1 5 -23 4 -22 0 -30 -2 -17 -4z"/>
<path d="M2372 3633 c-6 -2 -9 -9 -6 -15 4 -6 0 -14 -7 -19 -10 -6 -10 -9 -2
-9 7 0 10 -7 7 -15 -4 -8 -2 -15 4 -15 5 0 12 18 14 40 2 22 3 40 3 39 0 0 -6
-3 -13 -6z"/>
<path d="M3911 3578 c1 -18 2 -19 6 -5 4 14 8 15 18 7 10 -8 15 -8 21 1 4 7 3
9 -4 5 -6 -3 -13 -2 -17 4 -11 18 -25 11 -24 -12z"/>
<path d="M2371 3534 c0 -11 3 -14 6 -6 3 7 2 16 -1 19 -3 4 -6 -2 -5 -13z"/>
<path d="M2321 3521 c-10 -7 -7 -9 12 -8 14 1 23 5 20 10 -6 9 -15 9 -32 -2z"/>
<path d="M3865 3520 l-30 -8 27 -1 c15 0 30 4 33 9 3 6 5 9 3 9 -2 -1 -16 -5
-33 -9z"/>
<path d="M3750 3516 c0 -7 40 -14 44 -7 3 4 -6 8 -20 9 -13 1 -24 0 -24 -2z"/>
<path d="M3750 3489 c0 -5 5 -7 10 -4 6 3 10 8 10 11 0 2 -4 4 -10 4 -5 0 -10
-5 -10 -11z"/>
<path d="M3930 3489 c0 -5 5 -7 10 -4 6 3 10 8 10 11 0 2 -4 4 -10 4 -5 0 -10
-5 -10 -11z"/>
<path d="M2450 3479 c-21 -6 -19 -7 13 -6 20 0 37 1 37 3 0 7 -29 10 -50 3z"/>
<path d="M2296 3465 c-3 -8 -1 -15 4 -15 6 0 10 7 10 15 0 8 -2 15 -4 15 -2 0
-6 -7 -10 -15z"/>
<path d="M2528 3473 c6 -2 18 -2 25 0 6 3 1 5 -13 5 -14 0 -19 -2 -12 -5z"/>
<path d="M3825 3470 c-4 -6 3 -10 14 -10 25 0 27 6 6 13 -8 4 -17 2 -20 -3z"/>
<path d="M3950 3471 c0 -5 7 -12 16 -15 14 -5 15 -4 4 9 -14 17 -20 19 -20 6z"/>
<path d="M2315 3432 c-3 -9 -3 -13 1 -10 4 4 15 3 25 -3 24 -13 24 -8 0 13
-18 15 -20 15 -26 0z"/>
<path d="M2372 3420 c0 -19 2 -27 5 -17 2 9 2 25 0 35 -3 9 -5 1 -5 -18z"/>
<path d="M3930 3420 c0 -5 5 -10 11 -10 5 0 7 5 4 10 -3 6 -8 10 -11 10 -2 0
-4 -4 -4 -10z"/>
<path d="M3960 3426 c0 -2 7 -6 15 -10 8 -3 15 -1 15 4 0 6 -7 10 -15 10 -8 0
-15 -2 -15 -4z"/>
<path d="M2298 3403 c6 -2 18 -2 25 0 6 3 1 5 -13 5 -14 0 -19 -2 -12 -5z"/>
<path d="M3910 3371 c0 -17 4 -32 8 -35 4 -2 6 11 4 30 -5 42 -12 45 -12 5z"/>
<path d="M3960 3396 c0 -2 7 -9 15 -16 9 -7 15 -8 15 -2 0 5 -7 12 -15 16 -8
3 -15 4 -15 2z"/>
<path d="M2373 3357 c0 -8 6 -14 14 -14 9 0 10 4 2 14 -6 7 -12 13 -14 13 -1
0 -2 -6 -2 -13z"/>
<path d="M2495 3330 c-3 -6 1 -7 9 -4 18 7 21 14 7 14 -6 0 -13 -4 -16 -10z"/>
<path d="M2556 3323 c-6 -14 -5 -15 5 -6 7 7 10 15 7 18 -3 3 -9 -2 -12 -12z"/>
<path d="M3732 3320 c-9 -15 -9 -21 1 -26 6 -4 9 -4 5 1 -4 4 -3 14 4 22 6 7
9 15 7 18 -3 2 -10 -4 -17 -15z"/>
<path d="M3783 3333 c15 -2 37 -2 50 0 12 2 0 4 -28 4 -27 0 -38 -2 -22 -4z"/>
<path d="M3960 3336 c0 -2 7 -7 16 -10 8 -3 12 -2 9 4 -6 10 -25 14 -25 6z"/>
<path d="M2387 3309 c7 -7 15 -10 18 -7 3 3 -2 9 -12 12 -14 6 -15 5 -6 -5z"/>
<path d="M3885 3310 c-3 -6 1 -7 9 -4 18 7 21 14 7 14 -6 0 -13 -4 -16 -10z"/>
<path d="M3920 3306 c0 -8 4 -17 9 -20 5 -4 7 3 4 14 -6 23 -13 26 -13 6z"/>
<path d="M3954 3306 c1 -8 5 -18 8 -22 4 -3 5 1 4 10 -1 8 -5 18 -8 22 -4 3
-5 -1 -4 -10z"/>
<path d="M2293 3295 c0 -8 4 -12 9 -9 5 3 6 10 3 15 -9 13 -12 11 -12 -6z"/>
<path d="M2328 3303 c7 -3 16 -2 19 1 4 3 -2 6 -13 5 -11 0 -14 -3 -6 -6z"/>
<path d="M2574 3299 c-4 -7 -3 -9 4 -5 6 3 15 -2 21 -11 6 -10 11 -13 11 -7 0
20 -27 37 -36 23z"/>
<path d="M2360 3280 c-9 -6 -10 -10 -3 -10 6 0 15 5 18 10 8 12 4 12 -15 0z"/>
<path d="M3805 3270 c11 -5 27 -9 35 -9 9 0 8 4 -5 9 -11 5 -27 9 -35 9 -9 0
-8 -4 5 -9z"/>
<path d="M2942 3250 c0 -14 2 -19 5 -12 2 6 2 18 0 25 -3 6 -5 1 -5 -13z"/>
<path d="M2963 3255 c0 -8 4 -12 8 -9 4 2 10 -4 12 -13 3 -10 4 -6 4 10 -1 27
-24 40 -24 12z"/>
<path d="M3120 3260 c0 -5 7 -7 15 -4 8 4 15 8 15 10 0 2 -7 4 -15 4 -8 0 -15
-4 -15 -10z"/>
<path d="M3164 3185 c0 -49 1 -71 3 -48 2 23 2 64 0 90 -2 26 -3 8 -3 -42z"/>
<path d="M3700 3248 c-10 -21 -10 -22 3 -5 11 14 16 15 20 5 4 -9 6 -9 6 -1 2
23 -18 23 -29 1z"/>
<path d="M2590 3250 c0 -5 5 -10 11 -10 5 0 7 5 4 10 -3 6 -8 10 -11 10 -2 0
-4 -4 -4 -10z"/>
<path d="M3751 3244 c0 -11 3 -14 6 -6 3 7 2 16 -1 19 -3 4 -6 -2 -5 -13z"/>
<path d="M2371 3240 c0 -8 4 -22 9 -30 12 -18 12 -2 0 25 -6 13 -9 15 -9 5z"/>
<path d="M2550 3245 c0 -2 6 -8 13 -14 10 -8 14 -7 14 2 0 8 -6 14 -14 14 -7
0 -13 -1 -13 -2z"/>
<path d="M3847 3239 c7 -7 15 -10 18 -7 3 3 -2 9 -12 12 -14 6 -15 5 -6 -5z"/>
<path d="M2300 3229 c0 -5 4 -8 9 -4 5 3 12 1 16 -5 3 -5 1 -10 -6 -10 -7 0
-10 -3 -6 -6 3 -3 16 2 29 11 15 11 17 15 6 12 -10 -4 -18 -2 -18 3 0 6 -7 10
-15 10 -8 0 -15 -5 -15 -11z"/>
<path d="M2390 3236 c0 -2 9 -6 20 -9 11 -3 18 -1 14 4 -5 9 -34 13 -34 5z"/>
<path d="M3120 3215 c0 -8 2 -15 4 -15 2 0 6 7 10 15 3 8 1 15 -4 15 -6 0 -10
-7 -10 -15z"/>
<path d="M3292 3205 c0 -16 2 -22 5 -12 2 9 2 23 0 30 -3 6 -5 -1 -5 -18z"/>
<path d="M2943 3165 c0 -33 2 -45 4 -27 2 18 2 45 0 60 -2 15 -4 0 -4 -33z"/>
<path d="M3473 3205 c0 -8 4 -12 9 -9 5 3 6 10 3 15 -9 13 -12 11 -12 -6z"/>
<path d="M2566 3193 c-6 -14 -5 -15 5 -6 7 7 10 15 7 18 -3 3 -9 -2 -12 -12z"/>
<path d="M2813 3165 c0 -27 2 -38 4 -22 2 15 2 37 0 50 -2 12 -4 0 -4 -28z"/>
<path d="M3643 3155 c0 -33 2 -45 4 -27 2 18 2 45 0 60 -2 15 -4 0 -4 -33z"/>
<path d="M3681 3188 c5 -10 11 -18 12 -18 2 0 3 8 3 18 0 10 -6 19 -13 19 -8
0 -9 -6 -2 -19z"/>
<path d="M2460 3185 c0 -8 2 -15 4 -15 2 0 6 7 10 15 3 8 1 15 -4 15 -6 0 -10
-7 -10 -15z"/>
<path d="M2773 3178 c0 -13 1 -17 4 -10 3 6 9 10 14 6 5 -3 9 2 9 10 0 25 -26
19 -27 -6z"/>
<path d="M3810 3186 c0 -2 7 -7 16 -10 8 -3 12 -2 9 4 -6 10 -25 14 -25 6z"/>
<path d="M2594 3164 c-18 -14 -18 -15 4 -4 12 6 22 13 22 15 0 8 -5 6 -26 -11z"/>
<path d="M3290 3133 c0 -23 -5 -44 -10 -46 -6 -3 -5 -4 2 -3 7 1 14 15 16 29
2 18 7 25 15 20 7 -4 5 2 -3 13 -8 10 -16 21 -17 23 -2 2 -3 -14 -3 -36z"/>
<path d="M2316 3143 c-6 -14 -5 -15 5 -6 7 7 10 15 7 18 -3 3 -9 -2 -12 -12z"/>
<path d="M2550 3156 c0 -2 7 -9 15 -16 13 -11 14 -10 9 4 -5 14 -24 23 -24 12z"/>
<path d="M2612 3151 c-11 -7 -11 -9 0 -14 9 -3 15 1 15 9 0 8 -1 14 -1 14 -1
0 -7 -4 -14 -9z"/>
<path d="M2342 3130 c0 -14 2 -19 5 -12 2 6 2 18 0 25 -3 6 -5 1 -5 -13z"/>
<path d="M2396 3141 c-19 -7 -18 -8 4 -14 14 -3 29 -2 35 4 7 7 4 8 -9 3 -13
-5 -17 -4 -12 4 8 13 8 13 -18 3z"/>
<path d="M2775 3119 c-4 -6 -5 -12 -2 -15 2 -3 7 2 10 11 7 17 1 20 -8 4z"/>
<path d="M3120 3119 c0 -5 5 -7 10 -4 6 3 10 8 10 11 0 2 -4 4 -10 4 -5 0 -10
-5 -10 -11z"/>
<path d="M2640 3100 c6 -11 13 -20 16 -20 2 0 0 9 -6 20 -6 11 -13 20 -16 20
-2 0 0 -9 6 -20z"/>
<path d="M3831 3104 c0 -11 3 -14 6 -6 3 7 2 16 -1 19 -3 4 -6 -2 -5 -13z"/>
<path d="M3916 3098 c3 -5 10 -6 15 -3 13 9 11 12 -6 12 -8 0 -12 -4 -9 -9z"/>
<path d="M2952 3084 c10 -10 20 -16 22 -13 3 3 -5 11 -17 18 -21 13 -21 12 -5
-5z"/>
<path d="M2531 3064 c0 -11 3 -14 6 -6 3 7 2 16 -1 19 -3 4 -6 -2 -5 -13z"/>
<path d="M2688 3073 c7 -3 16 -2 19 1 4 3 -2 6 -13 5 -11 0 -14 -3 -6 -6z"/>
<path d="M3176 3067 c3 -10 9 -15 12 -12 3 3 0 11 -7 18 -10 9 -11 8 -5 -6z"/>
<path d="M3383 3073 c9 -2 25 -2 35 0 9 3 1 5 -18 5 -19 0 -27 -2 -17 -5z"/>
<path d="M3580 3076 c0 -2 11 -6 25 -8 13 -3 22 -1 19 3 -5 9 -44 13 -44 5z"/>
<path d="M3285 3060 c-3 -5 -1 -10 4 -10 6 0 11 5 11 10 0 6 -2 10 -4 10 -3 0
-8 -4 -11 -10z"/>
<path d="M3060 3049 c0 -5 5 -7 10 -4 6 3 10 8 10 11 0 2 -4 4 -10 4 -5 0 -10
-5 -10 -11z"/>
<path d="M2641 3038 c-1 -11 -8 -15 -23 -12 -21 4 -21 4 -3 -5 23 -10 40 1 32
21 -4 9 -6 8 -6 -4z"/>
<path d="M2810 3046 c0 -2 8 -10 18 -17 15 -13 16 -12 3 4 -13 16 -21 21 -21
13z"/>
<path d="M3220 3040 c0 -13 18 -22 24 -11 3 5 -1 11 -9 15 -8 3 -15 1 -15 -4z"/>
<path d="M3385 3041 c-3 -5 -2 -12 3 -15 5 -3 9 1 9 9 0 17 -3 19 -12 6z"/>
<path d="M3779 3023 c-12 -16 -12 -17 2 -6 9 7 20 9 24 5 5 -4 5 -1 1 6 -9 16
-11 15 -27 -5z"/>
<path d="M3845 3030 c-3 -6 1 -7 9 -4 18 7 21 14 7 14 -6 0 -13 -4 -16 -10z"/>
<path d="M2670 3019 c0 -5 5 -7 10 -4 6 3 10 8 10 11 0 2 -4 4 -10 4 -5 0 -10
-5 -10 -11z"/>
<path d="M3615 3020 c3 -5 8 -10 11 -10 2 0 4 5 4 10 0 6 -5 10 -11 10 -5 0
-7 -4 -4 -10z"/>
<path d="M6201 4347 c2 -1 15 -11 29 -22 l25 -20 -19 23 c-11 12 -24 22 -29
22 -6 0 -8 -1 -6 -3z"/>
<path d="M6195 4320 c-3 -5 -1 -10 4 -10 6 0 11 5 11 10 0 6 -2 10 -4 10 -3 0
-8 -4 -11 -10z"/>
<path d="M6273 4282 c10 -10 15 -22 12 -25 -3 -4 -2 -5 2 -2 3 3 13 -1 22 -7
9 -7 3 2 -13 20 -17 18 -32 32 -34 32 -3 0 2 -8 11 -18z"/>
<path d="M6195 4279 c-4 -6 -5 -12 -2 -15 2 -3 7 2 10 11 7 17 1 20 -8 4z"/>
<path d="M6029 4253 c-12 -16 -12 -17 2 -6 9 7 20 9 24 5 5 -4 5 -1 1 6 -9 16
-11 15 -27 -5z"/>
<path d="M6255 4250 c3 -5 8 -10 11 -10 2 0 4 5 4 10 0 6 -5 10 -11 10 -5 0
-7 -4 -4 -10z"/>
<path d="M6166 4242 c-3 -5 1 -9 9 -9 8 0 12 4 9 9 -3 4 -7 8 -9 8 -2 0 -6 -4
-9 -8z"/>
<path d="M6275 4230 c-3 -5 -1 -10 4 -10 6 0 11 5 11 10 0 6 -2 10 -4 10 -3 0
-8 -4 -11 -10z"/>
<path d="M5990 4211 c-7 -14 -7 -22 0 -26 6 -4 10 -3 9 2 -4 21 2 34 13 27 7
-4 8 -3 4 4 -10 16 -14 15 -26 -7z"/>
<path d="M6353 4204 c9 -11 17 -28 17 -37 0 -20 16 -31 26 -16 3 6 -8 25 -27
43 -18 17 -25 22 -16 10z"/>
<path d="M5942 4167 c-17 -18 -19 -24 -7 -24 8 0 13 3 10 5 -3 3 2 14 12 24
24 27 10 22 -15 -5z"/>
<path d="M6045 4160 c-3 -5 -1 -10 4 -10 6 0 11 5 11 10 0 6 -2 10 -4 10 -3 0
-8 -4 -11 -10z"/>
<path d="M5990 4130 c-14 -10 -23 -21 -20 -23 3 -2 16 6 30 19 30 29 25 31
-10 4z"/>
<path d="M6163 4143 c9 -2 25 -2 35 0 9 3 1 5 -18 5 -19 0 -27 -2 -17 -5z"/>
<path d="M5931 4114 c0 -11 3 -14 6 -6 3 7 2 16 -1 19 -3 4 -6 -2 -5 -13z"/>
<path d="M6136 4109 c-35 -27 -35 -71 0 -106 25 -25 39 -26 89 -8 17 6 17 4
-4 -14 -13 -12 -19 -21 -13 -21 19 0 36 32 40 77 6 79 -54 118 -112 72z"/>
<path d="M6243 4124 c9 -3 15 -9 12 -13 -2 -5 2 -17 11 -27 15 -18 15 -18 6 1
-6 11 -10 25 -10 30 -1 6 -9 11 -19 12 -17 2 -17 1 0 -3z"/>
<path d="M6705 4119 c-9 -13 -14 -10 85 -59 314 -157 510 -416 510 -675 0
-140 -53 -258 -162 -360 -37 -36 -96 -79 -129 -96 -80 -40 -196 -69 -276 -69
-48 0 -63 -3 -63 -14 0 -45 194 -52 312 -12 274 92 445 332 424 597 -24 295
-240 538 -595 669 -92 33 -97 34 -106 19z"/>
<path d="M5879 4103 c-13 -16 -12 -17 4 -4 16 13 21 21 13 21 -2 0 -10 -8 -17
-17z"/>
<path d="M6040 4100 c-8 -5 -12 -12 -9 -15 4 -3 12 1 19 10 14 17 11 19 -10 5z"/>
<path d="M6346 4085 c-11 -8 -15 -15 -9 -15 6 0 16 7 23 15 16 19 11 19 -14 0z"/>
<path d="M5900 4081 c0 -7 -4 -9 -10 -6 -5 3 -10 1 -10 -4 0 -6 4 -11 9 -11
13 0 25 20 17 27 -3 4 -6 1 -6 -6z"/>
<path d="M6080 4070 c-10 -14 -16 -16 -22 -7 -4 6 -8 8 -8 2 0 -5 5 -17 10
-25 7 -12 10 -12 10 -1 0 7 6 11 13 8 7 -3 13 5 13 19 2 29 2 29 -16 4z"/>
<path d="M5836 4061 c-14 -15 -15 -21 -4 -27 7 -4 10 -3 5 1 -4 5 0 17 10 27
9 10 14 18 11 18 -3 0 -13 -9 -22 -19z"/>
<path d="M6409 4053 c-13 -16 -12 -17 4 -4 9 7 17 15 17 17 0 8 -8 3 -21 -13z"/>
<path d="M6365 4049 c-4 -5 -4 -13 -1 -16 3 -4 6 0 6 8 0 11 2 11 10 -1 6 -9
10 -10 10 -3 0 17 -17 25 -25 12z"/>
<path d="M6476 4041 c-4 -5 -3 -17 1 -28 5 -15 1 -13 -23 7 l-29 24 28 -29
c23 -25 29 -28 37 -15 13 21 12 33 -2 24 -8 -5 -9 -2 -5 9 7 18 2 23 -7 8z"/>
<path d="M5929 4023 c-13 -16 -12 -17 4 -4 16 13 21 21 13 21 -2 0 -10 -8 -17
-17z"/>
<path d="M5779 4003 l-24 -28 28 24 c15 14 27 26 27 28 0 8 -8 1 -31 -24z"/>
<path d="M6098 3993 c6 -2 9 -10 6 -15 -4 -7 -2 -8 5 -4 13 9 5 26 -12 25 -9
0 -8 -2 1 -6z"/>
<path d="M6276 3965 c-9 -26 -7 -32 5 -12 6 10 9 21 6 23 -2 3 -7 -2 -11 -11z"/>
<path d="M6332 3964 c-7 -8 -8 -14 -3 -14 10 0 25 19 20 25 -2 1 -10 -3 -17
-11z"/>
<path d="M5850 3959 c0 -5 5 -7 10 -4 6 3 10 8 10 11 0 2 -4 4 -10 4 -5 0 -10
-5 -10 -11z"/>
<path d="M6150 3965 c0 -7 30 -13 34 -7 3 4 -4 9 -15 9 -10 1 -19 0 -19 -2z"/>
<path d="M5709 3933 l-24 -28 28 24 c15 14 27 26 27 28 0 8 -8 1 -31 -24z"/>
<path d="M6040 3949 c0 -6 -7 -9 -15 -5 -20 7 -19 -1 3 -24 16 -18 17 -17 18
11 1 16 0 29 -2 29 -2 0 -4 -5 -4 -11z"/>
<path d="M6070 3951 c0 -10 19 -25 25 -20 1 2 -3 10 -11 17 -8 7 -14 8 -14 3z"/>
<path d="M5885 3939 c-4 -6 -5 -12 -2 -15 2 -3 7 2 10 11 7 17 1 20 -8 4z"/>
<path d="M5958 3943 c6 -2 18 -2 25 0 6 3 1 5 -13 5 -14 0 -19 -2 -12 -5z"/>
<path d="M6211 3937 c-8 -10 -7 -14 2 -14 8 0 14 6 14 14 0 7 -1 13 -2 13 -2
0 -8 -6 -14 -13z"/>
<path d="M6420 3946 c0 -2 7 -7 16 -10 8 -3 12 -2 9 4 -6 10 -25 14 -25 6z"/>
<path d="M6495 3940 c-3 -6 1 -7 9 -4 18 7 21 14 7 14 -6 0 -13 -4 -16 -10z"/>
<path d="M6530 3939 c0 -5 5 -7 10 -4 6 3 10 8 10 11 0 2 -4 4 -10 4 -5 0 -10
-5 -10 -11z"/>
<path d="M6574 3925 c8 -8 20 -15 27 -15 7 0 4 6 -7 15 -25 19 -40 19 -20 0z"/>
<path d="M5846 3918 c3 -5 10 -6 15 -3 13 9 11 12 -6 12 -8 0 -12 -4 -9 -9z"/>
<path d="M5923 3904 c-25 -25 -27 -51 -8 -99 8 -19 7 -19 -11 -5 -17 13 -18
13 -7 0 6 -9 32 -16 60 -18 39 -2 53 1 68 18 28 31 24 79 -9 107 -35 30 -61
29 -93 -3z"/>
<path d="M6245 3920 c-3 -6 1 -7 9 -4 18 7 21 14 7 14 -6 0 -13 -4 -16 -10z"/>
<path d="M6330 3910 c-47 -47 -2 -137 63 -127 51 8 66 13 74 22 4 4 3 5 -3 2
-8 -5 -10 7 -6 38 3 35 0 50 -13 65 -25 27 -88 27 -115 0z"/>
<path d="M5750 3910 c0 -5 5 -10 11 -10 5 0 7 5 4 10 -3 6 -8 10 -11 10 -2 0
-4 -4 -4 -10z"/>
<path d="M6083 3891 c0 -11 5 -18 9 -15 4 3 5 11 1 19 -7 21 -12 19 -10 -4z"/>
<path d="M6057 3893 c-2 -5 0 -21 4 -38 7 -29 7 -28 6 8 -1 38 -3 43 -10 30z"/>
<path d="M5639 3863 l-24 -28 28 24 c15 14 27 26 27 28 0 8 -8 1 -31 -24z"/>
<path d="M6117 3879 c7 -7 15 -10 18 -7 3 3 -2 9 -12 12 -14 6 -15 5 -6 -5z"/>
<path d="M6285 3880 c3 -5 8 -10 11 -10 2 0 4 5 4 10 0 6 -5 10 -11 10 -5 0
-7 -4 -4 -10z"/>
<path d="M6588 3883 c7 -3 16 -2 19 1 4 3 -2 6 -13 5 -11 0 -14 -3 -6 -6z"/>
<path d="M6153 3865 c0 -8 4 -12 9 -9 5 3 6 10 3 15 -9 13 -12 11 -12 -6z"/>
<path d="M6213 3865 c0 -8 4 -12 9 -9 5 3 6 10 3 15 -9 13 -12 11 -12 -6z"/>
<path d="M6480 3869 c0 -5 5 -7 10 -4 6 3 10 8 10 11 0 2 -4 4 -10 4 -5 0 -10
-5 -10 -11z"/>
<path d="M6626 3867 c3 -10 9 -15 12 -12 3 3 0 11 -7 18 -10 9 -11 8 -5 -6z"/>
<path d="M8418 3875 c-3 -4 -1 -25 4 -48 14 -58 4 -161 -21 -228 -28 -75 -106
-184 -174 -245 -150 -133 -331 -199 -587 -213 l-115 -6 0 -30 c0 -28 3 -30 50
-37 188 -25 410 13 554 93 177 99 298 248 337 416 27 114 7 303 -31 303 -6 0
-14 -2 -17 -5z"/>
<path d="M6105 3850 c-3 -6 1 -7 9 -4 18 7 21 14 7 14 -6 0 -13 -4 -16 -10z"/>
<path d="M6286 3845 c-3 -8 -1 -15 4 -15 6 0 10 7 10 15 0 8 -2 15 -4 15 -2 0
-6 -7 -10 -15z"/>
<path d="M6586 3847 c3 -10 9 -15 12 -12 3 3 0 11 -7 18 -10 9 -11 8 -5 -6z"/>
<path d="M5754 3830 c0 -13 4 -16 10 -10 7 7 7 13 0 20 -6 6 -10 3 -10 -10z"/>
<path d="M5833 3818 c-2 -16 1 -18 10 -9 7 7 8 14 1 21 -6 6 -10 2 -11 -12z"/>
<path d="M5603 3823 c-7 -3 -13 -12 -13 -21 1 -16 1 -16 11 0 5 10 16 15 24
12 8 -4 15 -4 15 -1 0 8 -24 14 -37 10z"/>
<path d="M5789 3828 c-5 -18 -6 -38 -1 -34 7 8 12 36 6 36 -2 0 -4 -1 -5 -2z"/>
<path d="M6177 3815 c3 -8 9 -12 14 -9 12 7 11 11 -5 17 -10 4 -13 1 -9 -8z"/>
<path d="M6115 3810 c-3 -6 1 -7 9 -4 18 7 21 14 7 14 -6 0 -13 -4 -16 -10z"/>
<path d="M6210 3809 c0 -5 5 -7 10 -4 6 3 10 8 10 11 0 2 -4 4 -10 4 -5 0 -10
-5 -10 -11z"/>
<path d="M6270 3815 c0 -7 30 -13 34 -7 3 4 -4 9 -15 9 -10 1 -19 0 -19 -2z"/>
<path d="M5685 3790 c-3 -5 1 -10 10 -10 9 0 13 5 10 10 -3 6 -8 10 -10 10 -2
0 -7 -4 -10 -10z"/>
<path d="M6598 3782 c-12 -15 -11 -16 6 -2 16 13 20 12 32 -4 12 -18 13 -18
11 1 -1 24 -31 27 -49 5z"/>
<path d="M5540 3765 c-7 -9 -8 -15 -2 -15 5 0 12 7 16 15 3 8 4 15 2 15 -2 0
-9 -7 -16 -15z"/>
<path d="M6036 3766 c21 -15 67 -18 58 -5 -2 4 -13 5 -23 2 -10 -3 -22 0 -25
6 -4 6 -12 11 -19 11 -6 0 -2 -7 9 -14z"/>
<path d="M6496 3767 c3 -10 9 -15 12 -12 3 3 0 11 -7 18 -10 9 -11 8 -5 -6z"/>
<path d="M5865 3761 c-3 -6 4 -9 15 -8 11 1 20 5 20 9 0 11 -28 10 -35 -1z"/>
<path d="M6000 3766 c0 -2 8 -10 18 -17 15 -13 16 -12 3 4 -13 16 -21 21 -21
13z"/>
<path d="M6186 3758 c3 -5 10 -6 15 -3 13 9 11 12 -6 12 -8 0 -12 -4 -9 -9z"/>
<path d="M6350 3766 c0 -2 7 -6 15 -10 8 -3 15 -1 15 4 0 6 -7 10 -15 10 -8 0
-15 -2 -15 -4z"/>
<path d="M6236 3748 c3 -4 11 -5 19 -1 21 7 19 12 -4 10 -11 0 -18 -5 -15 -9z"/>
<path d="M5634 3730 c0 -13 4 -16 10 -10 7 7 7 13 0 20 -6 6 -10 3 -10 -10z"/>
<path d="M5580 3725 c-7 -9 -11 -17 -9 -20 3 -2 10 5 17 15 14 24 10 26 -8 5z"/>
<path d="M5785 3729 c-4 -6 -5 -12 -2 -15 2 -3 7 2 10 11 7 17 1 20 -8 4z"/>
<path d="M6158 3733 c7 -3 16 -2 19 1 4 3 -2 6 -13 5 -11 0 -14 -3 -6 -6z"/>
<path d="M6200 3730 c0 -5 5 -10 11 -10 5 0 7 5 4 10 -3 6 -8 10 -11 10 -2 0
-4 -4 -4 -10z"/>
<path d="M6655 3720 c10 -11 20 -20 23 -20 3 0 -3 9 -13 20 -10 11 -20 20 -23
20 -3 0 3 -9 13 -20z"/>
<path d="M5718 3723 c6 -2 18 -2 25 0 6 3 1 5 -13 5 -14 0 -19 -2 -12 -5z"/>
<path d="M6119 3713 c-13 -16 -12 -17 4 -4 16 13 21 21 13 21 -2 0 -10 -8 -17
-17z"/>
<path d="M6297 3723 c-12 -12 -7 -21 16 -26 20 -5 20 -5 5 7 -10 7 -15 16 -11
19 3 4 4 7 1 7 -2 0 -8 -3 -11 -7z"/>
<path d="M6546 3709 c-31 -24 -36 -81 -10 -117 20 -28 82 -30 115 -3 34 27 32
86 -5 117 -33 29 -65 30 -100 3z"/>
<path d="M5597 3713 c-12 -12 -7 -19 12 -19 15 0 17 3 9 13 -12 15 -13 15 -21
6z"/>
<path d="M6160 3712 c-32 -10 -50 -36 -50 -72 0 -95 128 -108 146 -15 10 51
-47 102 -96 87z"/>
<path d="M6485 3710 c3 -5 8 -10 11 -10 2 0 4 5 4 10 0 6 -5 10 -11 10 -5 0
-7 -4 -4 -10z"/>
<path d="M6791 3698 c-14 -23 -14 -23 8 -4 22 20 25 26 13 26 -4 0 -13 -10
-21 -22z"/>
<path d="M5670 3690 c-6 -11 -8 -20 -6 -20 3 0 10 9 16 20 6 11 8 20 6 20 -3
0 -10 -9 -16 -20z"/>
<path d="M5712 3703 c-7 -3 -19 -18 -28 -34 -27 -52 6 -109 63 -109 44 0 73
30 73 74 0 53 -57 90 -108 69z"/>
<path d="M5800 3706 c0 -2 8 -10 18 -17 15 -13 16 -12 3 4 -13 16 -21 21 -21
13z"/>
<path d="M5880 3700 c-12 -7 -12 -11 -2 -20 6 -5 10 -7 7 -4 -3 4 0 13 6 21
13 15 10 16 -11 3z"/>
<path d="M5455 3680 c-10 -11 -16 -22 -13 -25 3 -3 13 6 22 20 20 30 16 32 -9
5z"/>
<path d="M5997 3679 c-3 -12 4 -30 19 -47 13 -15 24 -24 24 -21 0 3 -9 16 -20
29 -11 12 -17 27 -13 33 4 6 10 3 14 -9 7 -18 8 -18 8 2 1 29 -25 39 -32 13z"/>
<path d="M6067 3689 c8 -7 9 -17 4 -23 -6 -7 -3 -19 6 -31 15 -19 15 -19 11 7
-3 15 -1 29 4 30 4 2 -2 9 -14 17 -17 10 -20 10 -11 0z"/>
<path d="M5840 3670 c-8 -5 -12 -12 -9 -15 4 -3 12 1 19 10 14 17 11 19 -10 5z"/>
<path d="M5944 3647 l-19 -22 21 18 c17 14 23 15 27 5 4 -9 6 -9 6 -1 2 22
-16 23 -35 0z"/>
<path d="M6474 3659 c-4 -7 -3 -9 4 -5 5 3 13 0 15 -6 4 -9 6 -10 6 -1 1 17
-16 25 -25 12z"/>
<path d="M6692 3650 c0 -14 2 -19 5 -12 2 6 2 18 0 25 -3 6 -5 1 -5 -13z"/>
<path d="M6760 3650 c6 -11 13 -20 16 -20 2 0 0 9 -6 20 -6 11 -13 20 -16 20
-2 0 0 -9 6 -20z"/>
<path d="M5580 3656 c0 -2 8 -10 18 -17 15 -13 16 -12 3 4 -13 16 -21 21 -21
13z"/>
<path d="M5652 3635 c0 -16 2 -22 5 -12 2 9 2 23 0 30 -3 6 -5 -1 -5 -18z"/>
<path d="M6272 3635 c0 -16 2 -22 5 -12 2 9 2 23 0 30 -3 6 -5 -1 -5 -18z"/>
<path d="M6360 3656 c0 -2 8 -10 18 -17 15 -13 16 -12 3 4 -13 16 -21 21 -21
13z"/>
<path d="M5429 3638 c11 -15 41 -15 41 -1 0 3 -6 3 -14 0 -7 -3 -20 0 -27 6
-11 10 -11 9 0 -5z"/>
<path d="M6451 3634 c0 -11 3 -14 6 -6 3 7 2 16 -1 19 -3 4 -6 -2 -5 -13z"/>
<path d="M5480 3630 c0 -5 7 -7 15 -4 8 4 15 8 15 10 0 2 -7 4 -15 4 -8 0 -15
-4 -15 -10z"/>
<path d="M6856 3632 c-2 -4 -1 -14 4 -22 7 -11 9 -9 7 8 -1 24 -3 26 -11 14z"/>
<path d="M6050 3613 c0 -9 3 -13 7 -10 3 4 13 1 22 -5 10 -8 9 -4 -3 10 -23
26 -26 27 -26 5z"/>
<path d="M6290 3621 c0 -6 4 -13 10 -16 6 -3 7 1 4 9 -7 18 -14 21 -14 7z"/>
<path d="M6417 3615 c3 -8 9 -12 14 -9 12 7 11 11 -5 17 -10 4 -13 1 -9 -8z"/>
<path d="M5830 3605 c0 -8 2 -15 4 -15 2 0 6 7 10 15 3 8 1 15 -4 15 -6 0 -10
-7 -10 -15z"/>
<path d="M6340 3616 c0 -2 8 -10 18 -17 15 -13 16 -12 3 4 -13 16 -21 21 -21
13z"/>
<path d="M5620 3599 c0 -5 5 -7 10 -4 6 3 10 8 10 11 0 2 -4 4 -10 4 -5 0 -10
-5 -10 -11z"/>
<path d="M6506 3597 c3 -10 9 -15 12 -12 3 3 0 11 -7 18 -10 9 -11 8 -5 -6z"/>
<path d="M6446 3592 c-3 -5 1 -9 9 -9 8 0 12 4 9 9 -3 4 -7 8 -9 8 -2 0 -6 -4
-9 -8z"/>
<path d="M6893 3593 c4 -3 7 -14 8 -26 0 -15 2 -17 6 -7 3 8 11 18 17 22 8 6
8 8 -1 8 -6 0 -17 2 -25 3 -7 2 -10 2 -5 0z"/>
<path d="M6029 3573 c-13 -16 -12 -17 4 -4 16 13 21 21 13 21 -2 0 -10 -8 -17
-17z"/>
<path d="M6096 3582 c-3 -5 1 -9 9 -9 8 0 12 4 9 9 -3 4 -7 8 -9 8 -2 0 -6 -4
-9 -8z"/>
<path d="M6280 3580 c0 -5 5 -10 11 -10 5 0 7 5 4 10 -3 6 -8 10 -11 10 -2 0
-4 -4 -4 -10z"/>
<path d="M6705 3580 c-16 -7 -17 -9 -3 -9 9 -1 20 4 23 9 7 11 7 11 -20 0z"/>
<path d="M5670 3570 c0 -5 5 -10 11 -10 5 0 7 5 4 10 -3 6 -8 10 -11 10 -2 0
-4 -4 -4 -10z"/>
<path d="M5894 3569 c-4 -7 -3 -9 4 -5 5 3 13 0 15 -6 4 -9 6 -10 6 -1 1 17
-16 25 -25 12z"/>
<path d="M6788 3573 c6 -2 18 -2 25 0 6 3 1 5 -13 5 -14 0 -19 -2 -12 -5z"/>
<path d="M5630 3549 c-22 -18 -22 -19 -3 -10 12 6 25 16 28 21 9 15 3 12 -25
-11z"/>
<path d="M5934 3558 c-4 -7 -4 -10 1 -6 4 4 15 2 24 -5 14 -11 14 -10 2 6 -16
20 -18 21 -27 5z"/>
<path d="M6255 3549 c-4 -6 -4 -13 -1 -16 3 -4 6 -1 6 5 0 6 8 13 18 15 15 4
15 5 0 6 -9 0 -20 -4 -23 -10z"/>
<path d="M6610 3550 c-8 -5 -10 -10 -5 -10 6 0 17 5 25 10 8 5 11 10 5 10 -5
0 -17 -5 -25 -10z"/>
<path d="M6361 3531 c0 -9 3 -11 5 -5 3 7 13 10 23 7 10 -3 21 -1 24 4 3 4 -8
8 -24 9 -21 1 -29 -3 -28 -15z"/>
<path d="M5850 3536 c0 -2 8 -10 18 -17 15 -13 16 -12 3 4 -13 16 -21 21 -21
13z"/>
<path d="M5440 3523 c0 -5 10 -18 23 -29 l22 -19 -20 25 c-11 14 -21 27 -22
29 -2 2 -3 0 -3 -6z"/>
<path d="M5683 3515 c0 -8 4 -12 9 -9 5 3 6 10 3 15 -9 13 -12 11 -12 -6z"/>
<path d="M6420 3526 c0 -2 7 -6 15 -10 8 -3 15 -1 15 4 0 6 -7 10 -15 10 -8 0
-15 -2 -15 -4z"/>
<path d="M6516 3521 c-4 -5 -2 -12 3 -15 5 -4 12 -2 15 3 4 5 2 12 -3 15 -5 4
-12 2 -15 -3z"/>
<path d="M5940 3502 c-79 -25 -59 -152 23 -152 32 0 64 29 73 66 12 46 -49
101 -96 86z"/>
<path d="M6341 3492 c-31 -24 -31 -75 -1 -107 29 -31 68 -32 104 -4 33 26 36
79 6 109 -25 25 -80 26 -109 2z"/>
<path d="M6470 3490 c6 -11 13 -20 16 -20 2 0 0 9 -6 20 -6 11 -13 20 -16 20
-2 0 0 -9 6 -20z"/>
<path d="M6539 3493 c-13 -15 -12 -15 7 -5 12 6 25 8 29 4 5 -4 5 -1 1 6 -10
16 -21 15 -37 -5z"/>
<path d="M6754 3488 l-19 -23 23 19 c21 18 27 26 19 26 -2 0 -12 -10 -23 -22z"/>
<path d="M5779 3488 c15 -21 31 -23 31 -6 0 6 -3 8 -7 5 -3 -4 -13 -1 -22 6
-14 11 -14 10 -2 -5z"/>
<path d="M6303 3485 c-3 -9 -3 -18 -1 -21 3 -3 8 4 11 16 6 23 -1 27 -10 5z"/>
<path d="M5618 3473 c6 -2 9 -10 6 -15 -4 -7 -2 -8 5 -4 13 9 5 26 -12 25 -9
0 -8 -2 1 -6z"/>
<path d="M6093 3473 c4 -3 1 -13 -6 -22 -11 -14 -10 -14 5 -2 16 12 16 31 1
31 -4 0 -3 -3 0 -7z"/>
<path d="M6052 3443 c-1 -17 -5 -40 -8 -50 -5 -17 -5 -17 6 0 6 9 9 32 7 50
l-4 32 -1 -32z"/>
<path d="M6660 3461 c0 -7 -5 -9 -12 -5 -7 5 -8 3 -3 -5 5 -9 10 -10 18 -2 6
6 8 14 4 18 -4 3 -7 1 -7 -6z"/>
<path d="M6291 3434 c0 -11 3 -14 6 -6 3 7 2 16 -1 19 -3 4 -6 -2 -5 -13z"/>
<path d="M5585 3430 c-3 -4 -16 -6 -30 -5 -14 2 -23 0 -20 -4 3 -7 45 -7 53
-1 1 2 6 3 11 4 17 2 21 13 6 13 -9 0 -18 -3 -20 -7z"/>
<path d="M6713 3433 c9 -2 15 -8 13 -12 -3 -4 1 -8 9 -8 11 0 12 4 4 14 -6 7
-19 12 -28 12 -13 -1 -13 -2 2 -6z"/>
<path d="M5667 3409 c7 -7 15 -10 18 -7 3 3 -2 9 -12 12 -14 6 -15 5 -6 -5z"/>
<path d="M5786 3407 c3 -10 9 -15 12 -12 3 3 0 11 -7 18 -10 9 -11 8 -5 -6z"/>
<path d="M6768 3413 c7 -3 16 -2 19 1 4 3 -2 6 -13 5 -11 0 -14 -3 -6 -6z"/>
<path d="M5871 3398 c-1 -9 4 -20 9 -23 6 -4 8 -11 4 -16 -3 -5 0 -8 8 -7 7 2
12 -3 10 -10 -1 -8 2 -11 7 -8 5 4 11 2 13 -4 2 -6 8 -6 18 0 13 9 13 10 -1
10 -17 0 -53 35 -62 60 -4 12 -6 12 -6 -2z"/>
<path d="M5580 3391 c0 -6 4 -13 10 -16 6 -3 7 1 4 9 -7 18 -14 21 -14 7z"/>
<path d="M5760 3390 c0 -5 5 -10 11 -10 5 0 7 5 4 10 -3 6 -8 10 -11 10 -2 0
-4 -4 -4 -10z"/>
<path d="M6130 3385 c-11 -13 -10 -14 4 -9 9 3 16 10 16 15 0 13 -6 11 -20 -6z"/>
<path d="M6250 3386 c0 -2 8 -10 18 -17 15 -13 16 -12 3 4 -13 16 -21 21 -21
13z"/>
<path d="M6170 3373 c0 -5 11 -8 24 -8 13 0 22 3 19 8 -2 4 -13 7 -24 7 -10 0
-19 -3 -19 -7z"/>
<path d="M6473 3359 c-2 -23 3 -25 10 -4 4 8 3 16 -1 19 -4 3 -9 -4 -9 -15z"/>
<path d="M6506 3363 c-6 -14 -5 -15 5 -6 7 7 10 15 7 18 -3 3 -9 -2 -12 -12z"/>
<path d="M5745 3360 c3 -5 8 -10 11 -10 2 0 4 5 4 10 0 6 -5 10 -11 10 -5 0
-7 -4 -4 -10z"/>
<path d="M6092 3350 c0 -14 2 -19 5 -12 2 6 2 18 0 25 -3 6 -5 1 -5 -13z"/>
<path d="M6236 3352 c-3 -5 1 -9 9 -9 8 0 12 4 9 9 -3 4 -7 8 -9 8 -2 0 -6 -4
-9 -8z"/>
<path d="M6348 3348 c10 -13 10 -17 0 -20 -7 -3 -8 -7 -3 -10 6 -3 16 0 23 8
10 11 8 15 -10 25 -20 11 -22 10 -10 -3z"/>
<path d="M6525 3351 c-9 -15 15 -25 28 -12 9 9 7 10 -7 5 -13 -5 -17 -4 -12 4
4 7 5 12 2 12 -3 0 -7 -4 -11 -9z"/>
<path d="M5995 3340 c-3 -5 -1 -10 4 -10 6 0 11 5 11 10 0 6 -2 10 -4 10 -3 0
-8 -4 -11 -10z"/>
<path d="M6394 3338 c-4 -7 -4 -10 1 -6 4 4 14 0 21 -10 12 -16 13 -15 11 6
-1 24 -21 30 -33 10z"/>
<path d="M6630 3335 c-7 -9 -10 -18 -6 -22 3 -3 6 -1 6 6 0 7 4 10 8 7 5 -3 9
1 9 9 0 19 -2 19 -17 0z"/>
<path d="M5784 3328 c-5 -7 -3 -8 6 -3 8 5 18 1 27 -10 7 -11 13 -14 13 -9 0
12 -21 34 -31 34 -4 0 -11 -5 -15 -12z"/>
<path d="M5966 3331 c-3 -5 1 -11 9 -14 9 -4 12 -1 8 9 -6 16 -10 17 -17 5z"/>
<path d="M5640 3326 c0 -2 8 -10 18 -17 15 -13 16 -12 3 4 -13 16 -21 21 -21
13z"/>
<path d="M6126 3311 c-4 -5 3 -7 14 -4 23 6 26 13 6 13 -8 0 -17 -4 -20 -9z"/>
<path d="M6450 3311 c0 -6 4 -13 10 -16 6 -3 7 1 4 9 -7 18 -14 21 -14 7z"/>
<path d="M6483 3303 c-3 -10 -8 -22 -11 -27 -3 -5 0 -6 5 -3 11 7 25 47 17 47
-3 0 -7 -8 -11 -17z"/>
<path d="M6575 3311 c-3 -5 -2 -12 3 -15 5 -3 9 1 9 9 0 17 -3 19 -12 6z"/>
<path d="M5915 3300 c-3 -5 -1 -10 4 -10 6 0 11 5 11 10 0 6 -2 10 -4 10 -3 0
-8 -4 -11 -10z"/>
<path d="M6235 3290 c10 -11 20 -20 23 -20 3 0 -3 9 -13 20 -10 11 -20 20 -23
20 -3 0 3 -9 13 -20z"/>
<path d="M6506 3302 c-3 -5 4 -16 15 -25 10 -9 19 -12 19 -7 0 6 -7 13 -15 16
-8 4 -12 10 -9 15 3 5 3 9 0 9 -3 0 -7 -4 -10 -8z"/>
<path d="M6123 3285 c-12 -8 -23 -11 -25 -6 -2 5 -10 2 -18 -7 -13 -14 -12
-15 2 -10 12 5 15 -1 14 -32 -2 -77 82 -120 132 -67 67 71 -25 178 -105 122z"/>
<path d="M6411 3291 c-8 -5 -9 -11 -3 -15 5 -3 12 1 16 9 6 17 6 18 -13 6z"/>
<path d="M6436 3282 c-3 -5 1 -9 9 -9 8 0 12 4 9 9 -3 4 -7 8 -9 8 -2 0 -6 -4
-9 -8z"/>
<path d="M5735 3270 c3 -5 8 -10 11 -10 2 0 4 5 4 10 0 6 -5 10 -11 10 -5 0
-7 -4 -4 -10z"/>
<path d="M5907 3260 c-14 -13 -15 -20 -6 -26 8 -4 10 -3 5 4 -11 19 5 14 21
-5 13 -16 13 -16 4 4 -8 16 -8 22 1 25 7 3 8 7 3 10 -6 3 -18 -3 -28 -12z"/>
<path d="M5840 3250 c-9 -6 -10 -10 -3 -10 6 0 15 5 18 10 8 12 4 12 -15 0z"/>
<path d="M6411 3244 c0 -11 3 -14 6 -6 3 7 2 16 -1 19 -3 4 -6 -2 -5 -13z"/>
<path d="M5780 3240 c-8 -5 -10 -10 -5 -10 6 0 17 5 25 10 8 5 11 10 5 10 -5
0 -17 -5 -25 -10z"/>
<path d="M6290 3246 c0 -2 7 -7 16 -10 8 -3 12 -2 9 4 -6 10 -25 14 -25 6z"/>
<path d="M6365 3240 c-16 -7 -17 -9 -3 -9 9 -1 20 4 23 9 7 11 7 11 -20 0z"/>
<path d="M6480 3246 c0 -2 8 -10 18 -17 15 -13 16 -12 3 4 -13 16 -21 21 -21
13z"/>
<path d="M6526 3238 c3 -5 10 -6 15 -3 13 9 11 12 -6 12 -8 0 -12 -4 -9 -9z"/>
<path d="M5765 3201 c38 -40 60 -56 35 -26 -7 8 -9 22 -6 31 5 14 4 15 -9 4
-8 -7 -15 -8 -15 -4 0 5 -10 15 -22 23 -13 8 -6 -4 17 -28z"/>
<path d="M6270 3226 c0 -8 -3 -21 -6 -30 -3 -9 -2 -16 3 -16 5 0 10 14 11 30
1 17 0 30 -3 30 -3 0 -5 -6 -5 -14z"/>
<path d="M5831 3186 c-8 -10 -9 -16 -1 -21 5 -3 10 -5 11 -3 4 18 7 38 4 38
-1 0 -8 -6 -14 -14z"/>
<path d="M6417 3189 c7 -7 15 -10 18 -7 3 3 -2 9 -12 12 -14 6 -15 5 -6 -5z"/>
<path d="M6410 3160 c-9 -6 -10 -10 -3 -10 6 0 15 5 18 10 8 12 4 12 -15 0z"/>
<path d="M5945 3140 c3 -5 8 -10 11 -10 2 0 4 5 4 10 0 6 -5 10 -11 10 -5 0
-7 -4 -4 -10z"/>
<path d="M6210 3134 l-25 -15 25 7 c28 7 35 12 29 18 -2 2 -15 -2 -29 -10z"/>
<path d="M6270 3130 c-9 -6 -10 -10 -3 -10 6 0 15 5 18 10 8 12 4 12 -15 0z"/>
<path d="M6340 3136 c0 -2 8 -10 18 -17 15 -13 16 -12 3 4 -13 16 -21 21 -21
13z"/>
<path d="M6120 3120 c0 -5 7 -7 15 -4 8 4 15 8 15 10 0 2 -7 4 -15 4 -8 0 -15
-4 -15 -10z"/>
<path d="M5855 3110 c3 -5 11 -10 16 -10 6 0 7 5 4 10 -3 6 -11 10 -16 10 -6
0 -7 -4 -4 -10z"/>
<path d="M6070 3110 c-9 -6 -10 -10 -3 -10 6 0 15 5 18 10 8 12 4 12 -15 0z"/>
<path d="M6101 3104 c0 -11 3 -14 6 -6 3 7 2 16 -1 19 -3 4 -6 -2 -5 -13z"/>
<path d="M6310 3110 c0 -5 5 -10 11 -10 5 0 7 5 4 10 -3 6 -8 10 -11 10 -2 0
-4 -4 -4 -10z"/>
<path d="M6174 3078 l-19 -23 23 19 c21 18 27 26 19 26 -2 0 -12 -10 -23 -22z"/>
<path d="M5880 3086 c0 -2 8 -10 18 -17 15 -13 16 -12 3 4 -13 16 -21 21 -21
13z"/>
<path d="M5936 3057 c-16 -12 -16 -14 6 -32 21 -18 22 -18 6 0 -16 17 -16 19
0 31 22 17 11 18 -12 1z"/>
<path d="M6311 3054 c0 -11 3 -14 6 -6 3 7 2 16 -1 19 -3 4 -6 -2 -5 -13z"/>
<path d="M6236 3044 c-9 -24 -7 -31 5 -11 6 9 15 14 21 11 7 -4 8 -2 4 4 -10
17 -23 15 -30 -4z"/>
<path d="M6033 3040 c-13 -5 -23 -11 -23 -14 0 -7 40 6 46 15 6 10 6 10 -23
-1z"/>
<path d="M6150 3033 c0 -15 18 -35 23 -27 3 5 -1 15 -9 22 -8 7 -14 9 -14 5z"/>
<path d="M6132 2994 c22 -23 30 -26 40 -16 11 11 10 12 -4 7 -10 -4 -18 -3
-18 2 0 4 -10 14 -22 22 -19 11 -19 9 4 -15z"/>
<path d="M6015 2950 c27 -27 53 -50 57 -50 4 0 -12 19 -37 42 -24 23 -42 45
-39 50 3 4 -3 8 -13 8 -12 0 -3 -14 32 -50z"/>
<path d="M6213 2978 c1 -15 6 -23 11 -18 4 4 4 16 -2 26 -9 16 -10 14 -9 -8z"/>
<path d="M6259 2983 c-13 -16 -12 -17 4 -4 9 7 17 15 17 17 0 8 -8 3 -21 -13z"/>
<path d="M6316 2977 c3 -10 9 -15 12 -12 3 3 0 11 -7 18 -10 9 -11 8 -5 -6z"/>
<path d="M6290 2959 c0 -5 5 -7 10 -4 6 3 10 8 10 11 0 2 -4 4 -10 4 -5 0 -10
-5 -10 -11z"/>
<path d="M6080 2941 c0 -6 4 -13 10 -16 6 -3 7 1 4 9 -7 18 -14 21 -14 7z"/>
<path d="M6177 2909 c7 -7 15 -10 18 -7 3 3 -2 9 -12 12 -14 6 -15 5 -6 -5z"/>
<path d="M6230 2900 c0 -5 5 -10 11 -10 5 0 7 5 4 10 -3 6 -8 10 -11 10 -2 0
-4 -4 -4 -10z"/>
<path d="M6102 2865 c15 -16 29 -27 31 -24 3 2 -10 15 -27 28 l-31 24 27 -28z"/>
<path d="M6190 2887 c0 -5 5 -17 10 -28 8 -14 7 -19 -1 -19 -7 0 -10 -2 -7 -5
10 -10 38 7 37 24 0 12 -2 13 -6 2 -4 -10 -9 -8 -19 10 -7 13 -13 20 -14 16z"/>
</g>
</svg>
